<?xml version="1.0" encoding="UTF-8" standalone="no"?>
<svg
   xmlns:dc="http://purl.org/dc/elements/1.1/"
   xmlns:cc="http://creativecommons.org/ns#"
   xmlns:rdf="http://www.w3.org/1999/02/22-rdf-syntax-ns#"
   xmlns:svg="http://www.w3.org/2000/svg"
   xmlns="http://www.w3.org/2000/svg"
   height="36.4"
   width="32"
   version="1.1"
   id="svg2"
   viewBox="0 0 32 36.4">
  <metadata
     id="metadata18">
    <rdf:RDF>
      <cc:Work
         rdf:about="">
        <dc:format>image/svg+xml</dc:format>
        <dc:type
           rdf:resource="http://purl.org/dc/dcmitype/StillImage" />
        <dc:title>HTML5 Logo Badge</dc:title>
      </cc:Work>
    </rdf:RDF>
  </metadata>
  <defs
     id="defs16" />
  <title
     id="title4">HTML5 Logo Badge</title>
  <path
     style="fill:#e34f26"
     id="path6"
     d="M 2.9,32.7 0,0 32,0 29.1,32.7 16,36.4" />
  <path
     style="fill:#ef652a"
     id="path8"
     d="M 16,33.5 26.6,30.6 29.1,2.7 16,2.7" />
  <path
     style="fill:#ebebeb"
     id="path10"
     d="m 16,14.8 -5.3,0 -0.3,-4.1 5.6,0 0,-4 0,0 -10,0 0,1.1 1,11 9,0 z m 0,10.4 0,0 -4.5,-1.2 -0.3,-3.2 -2.1,0 -1.9,0 0.5,6.3 8.3,2.3 0,0 z" />
  <path
     style="fill:#ffffff"
     id="path12"
     d="m 16,14.8 0,4 4.9,0 -0.5,5.2 -4.4,1.2 0,4.2 8.2,-2.3 0.1,-0.7 0.9,-10.5 0.1,-1.1 -1.1,0 z m 0,-8.1 0,2.5 0,1.5 0,0 9.7,0 0,0 0,0 0.1,-0.9 0.2,-2 0,-1.1 z" />
</svg>
