<?xml version="1.0" encoding="UTF-8" standalone="no"?>
<svg
   xmlns:dc="http://purl.org/dc/elements/1.1/"
   xmlns:cc="http://creativecommons.org/ns#"
   xmlns:rdf="http://www.w3.org/1999/02/22-rdf-syntax-ns#"
   xmlns:svg="http://www.w3.org/2000/svg"
   xmlns="http://www.w3.org/2000/svg"
   viewBox="0 0 18 32"
   version="1.1"
   width="18"
   height="32"
   xml:space="preserve"
   id="svg2"><defs
     id="defs35" /><metadata
     id="metadata8"><rdf:RDF><cc:Work
         rdf:about=""><dc:format>image/svg+xml</dc:format><dc:type
           rdf:resource="http://purl.org/dc/dcmitype/StillImage" /><dc:title></dc:title></cc:Work></rdf:RDF></metadata><g
     transform="matrix(0.1384,0,0,-0.1384,-27.16,65.18)"
     id="g10"><path
       style="fill:#e9232e"
       d="m 274.2,470.8 c 3.6,-4.1 4.8,-10 3.8,-15.4 -1.1,-5.9 -4.4,-11.2 -8.3,-15.8 -3.2,-3.6 -6.8,-6.9 -10.5,-9.9 -4.4,-3.5 -8.6,-7.3 -11.4,-12.2 -2.3,-4 -2.8,-9 -1.3,-13.3 2.6,-7.5 8.6,-13.1 11.9,-20.1 -3.6,3.2 -7.2,6.5 -10.5,10 -3.4,3.7 -6.7,7.6 -8.9,12.3 -1.5,3.2 -2.1,7 -1,10.4 1.1,3.5 3.6,6.3 6.1,9 7,7 15.6,12.1 22.5,19.2 3.8,3.9 6.9,8.6 8,13.9 0.8,4 0.4,8 -0.4,11.9"
       id="path156" /><path
       style="fill:none;stroke:#e9232e;stroke-width:0.0938;stroke-miterlimit:10"
       stroke-miterlimit="10"
       d="m 274.2,470.8 c 3.6,-4.1 4.8,-10 3.8,-15.4 -1.1,-5.9 -4.4,-11.2 -8.3,-15.8 -3.2,-3.6 -6.8,-6.9 -10.5,-9.9 -4.4,-3.5 -8.6,-7.3 -11.4,-12.2 -2.3,-4 -2.8,-9 -1.3,-13.3 2.6,-7.5 8.6,-13.1 11.9,-20.1 -3.6,3.2 -7.2,6.5 -10.5,10 -3.4,3.7 -6.7,7.6 -8.9,12.3 -1.5,3.2 -2.1,7 -1,10.4 1.1,3.5 3.6,6.3 6.1,9 7,7 15.6,12.1 22.5,19.2 3.8,3.9 6.9,8.6 8,13.9 0.8,4 0.4,8 -0.4,11.9 z"
       id="path158" /><path
       style="fill:#e9232e"
       d="m 268.5,426.9 c 7.5,5.5 16.2,9 25.1,11.5 -7,-4.4 -14.3,-8.5 -20.4,-14.3 -2.2,-2.1 -4.3,-4.5 -5.2,-7.5 -0.8,-2.2 -0.5,-4.6 0.4,-6.7 1.6,-3.7 4.4,-6.7 6.5,-10.1 1.7,-2.9 2.1,-6.6 0.7,-9.8 -2,-4.6 -6.1,-7.9 -10.2,-10.6 -0.6,-0.3 -1,-0.9 -1.7,-0.9 2.8,2.5 5,6 4.9,9.8 -0.1,2.9 -1.7,5.4 -3.5,7.4 -3.9,4.6 -7.1,10.4 -6.4,16.5 0.7,6.2 5.1,11.1 9.8,14.7"
       id="path160" /><path
       style="fill:none;stroke:#e9232e;stroke-width:0.0938;stroke-miterlimit:10"
       stroke-miterlimit="10"
       d="m 268.5,426.9 c 7.5,5.5 16.2,9 25.1,11.5 -7,-4.4 -14.3,-8.5 -20.4,-14.3 -2.2,-2.1 -4.3,-4.5 -5.2,-7.5 -0.8,-2.2 -0.5,-4.6 0.4,-6.7 1.6,-3.7 4.4,-6.7 6.5,-10.1 1.7,-2.9 2.1,-6.6 0.7,-9.8 -2,-4.6 -6.1,-7.9 -10.2,-10.6 -0.6,-0.3 -1,-0.9 -1.7,-0.9 2.8,2.5 5,6 4.9,9.8 -0.1,2.9 -1.7,5.4 -3.5,7.4 -3.9,4.6 -7.1,10.4 -6.4,16.5 0.7,6.2 5.1,11.1 9.8,14.7 z"
       id="path162" /><path
       style="fill:#3471c0"
       d="m 295.1,382.2 c 1.6,2 4.2,2.5 6.5,2.8 4.1,0.6 8.5,-0.5 11.5,-3.3 2.6,-2.3 4,-5.8 3.5,-9.3 -0.6,-3.9 -3.3,-7.3 -6.3,-9.8 -5.4,-4.3 -12.1,-6.9 -18.8,-8.6 0.3,0.5 0.8,0.8 1.3,1.2 5.1,2.7 10.1,5.9 13.9,10.4 2.2,2.7 4,6.4 3.3,10 -0.8,4.3 -4.9,7.4 -9.1,7.6 -2,0.2 -3.9,-0.6 -5.8,-1"
       id="path164" /><path
       style="fill:none;stroke:#3471c0;stroke-width:0.0938;stroke-miterlimit:10"
       stroke-miterlimit="10"
       d="m 295.1,382.2 c 1.6,2 4.2,2.5 6.5,2.8 4.1,0.6 8.5,-0.5 11.5,-3.3 2.6,-2.3 4,-5.8 3.5,-9.3 -0.6,-3.9 -3.3,-7.3 -6.3,-9.8 -5.4,-4.3 -12.1,-6.9 -18.8,-8.6 0.3,0.5 0.8,0.8 1.3,1.2 5.1,2.7 10.1,5.9 13.9,10.4 2.2,2.7 4,6.4 3.3,10 -0.8,4.3 -4.9,7.4 -9.1,7.6 -2,0.2 -3.9,-0.6 -5.8,-1 z"
       id="path166" /><path
       style="fill:#3471c0"
       d="m 217.5,378.7 c 7.1,3.1 14.8,5 22.6,4.9 -4.6,-1.3 -9.2,-2.4 -13.4,-4.4 -1,-0.5 -2.2,-1 -2.8,-2.1 -0.3,-0.8 0.6,-1.3 1.2,-1.6 2.6,-1.1 5.5,-1.2 8.3,-1.5 9.9,-0.7 19.8,-0.3 29.7,0.3 9.7,0.6 19.3,2 28.9,3.5 -2.1,-1 -4.2,-2 -6.2,-3.3 -1,-0.7 -2.3,-0.9 -3.4,-1.1 -11.8,-2.7 -23.9,-3.5 -35.9,-3.7 -4.7,0 -9.3,0.1 -14,0.4 -5.1,0.3 -10.4,0.7 -15.4,2.1 -1.5,0.4 -3,0.9 -4.2,1.9 -0.6,0.5 -0.6,1.4 -0.1,1.9 1.3,1.3 3.1,2 4.7,2.7"
       id="path168" /><path
       style="fill:none;stroke:#3471c0;stroke-width:0.0938;stroke-miterlimit:10"
       stroke-miterlimit="10"
       d="m 217.5,378.7 c 7.1,3.1 14.8,5 22.6,4.9 -4.6,-1.3 -9.2,-2.4 -13.4,-4.4 -1,-0.5 -2.2,-1 -2.8,-2.1 -0.3,-0.8 0.6,-1.3 1.2,-1.6 2.6,-1.1 5.5,-1.2 8.3,-1.5 9.9,-0.7 19.8,-0.3 29.7,0.3 9.7,0.6 19.3,2 28.9,3.5 -2.1,-1 -4.2,-2 -6.2,-3.3 -1,-0.7 -2.3,-0.9 -3.4,-1.1 -11.8,-2.7 -23.9,-3.5 -35.9,-3.7 -4.7,0 -9.3,0.1 -14,0.4 -5.1,0.3 -10.4,0.7 -15.4,2.1 -1.5,0.4 -3,0.9 -4.2,1.9 -0.6,0.5 -0.6,1.4 -0.1,1.9 1.3,1.3 3.1,2 4.7,2.7 z"
       id="path170" /><path
       style="fill:#3471c0"
       d="m 226.6,362.3 c 2,1.5 4.4,2.4 6.8,3.3 -0.8,-1 -1.9,-1.8 -1.9,-3.1 -0.1,-0.8 0.6,-1.4 1.2,-1.8 1.3,-0.7 2.7,-0.9 4.2,-1.1 7.4,-0.8 14.9,-1.2 22.3,-0.7 6.9,0.3 13.7,1.5 20.4,2.7 1.9,-1.8 4.1,-3 6.4,-4 -8.2,-2.4 -16.5,-3.8 -24.9,-4.5 -8,-0.5 -16.1,-0.5 -24,0.8 -3.1,0.6 -6.3,1.3 -9.2,2.7 -1.1,0.6 -2.4,1.4 -2.8,2.8 -0.2,1.2 0.6,2.2 1.5,2.9"
       id="path172" /><path
       style="fill:none;stroke:#3471c0;stroke-width:0.0938;stroke-miterlimit:10"
       stroke-miterlimit="10"
       d="m 226.6,362.3 c 2,1.5 4.4,2.4 6.8,3.3 -0.8,-1 -1.9,-1.8 -1.9,-3.1 -0.1,-0.8 0.6,-1.4 1.2,-1.8 1.3,-0.7 2.7,-0.9 4.2,-1.1 7.4,-0.8 14.9,-1.2 22.3,-0.7 6.9,0.3 13.7,1.5 20.4,2.7 1.9,-1.8 4.1,-3 6.4,-4 -8.2,-2.4 -16.5,-3.8 -24.9,-4.5 -8,-0.5 -16.1,-0.5 -24,0.8 -3.1,0.6 -6.3,1.3 -9.2,2.7 -1.1,0.6 -2.4,1.4 -2.8,2.8 -0.2,1.2 0.6,2.2 1.5,2.9 z"
       id="path174" /><path
       style="fill:#3471c0"
       d="m 231.1,345.4 c 1.7,1.5 3.9,2.2 6.1,2.8 -0.7,-0.6 -1.9,-1.5 -1.4,-2.6 1.1,-1.3 3,-1.5 4.5,-1.8 6.6,-0.8 13.2,-1.4 19.7,-0.9 4.9,0.3 9.8,1.2 14.6,2.1 2.8,-1.7 5.7,-3 8.6,-4.3 -4.5,-2 -9.4,-3.3 -14.3,-4.3 -8.3,-1.4 -16.8,-1.6 -25.1,-0.3 -3.7,0.6 -7.4,1.5 -10.7,3.3 -1.3,0.7 -2.6,1.6 -3.2,3 -0.4,1.1 0.3,2.3 1.2,3"
       id="path176" /><path
       style="fill:none;stroke:#3471c0;stroke-width:0.0938;stroke-miterlimit:10"
       stroke-miterlimit="10"
       d="m 231.1,345.4 c 1.7,1.5 3.9,2.2 6.1,2.8 -0.7,-0.6 -1.9,-1.5 -1.4,-2.6 1.1,-1.3 3,-1.5 4.5,-1.8 6.6,-0.8 13.2,-1.4 19.7,-0.9 4.9,0.3 9.8,1.2 14.6,2.1 2.8,-1.7 5.7,-3 8.6,-4.3 -4.5,-2 -9.4,-3.3 -14.3,-4.3 -8.3,-1.4 -16.8,-1.6 -25.1,-0.3 -3.7,0.6 -7.4,1.5 -10.7,3.3 -1.3,0.7 -2.6,1.6 -3.2,3 -0.4,1.1 0.3,2.3 1.2,3 z"
       id="path178" /><path
       style="fill:#3471c0"
       d="m 209.7,334.5 c 3.5,1.2 7.2,2.2 10.9,2.3 1.5,0 3.1,-0.1 4.4,-0.8 -4.5,-0.3 -9,-1.4 -13,-3.5 -0.9,-0.5 -1.9,-1 -2.2,-2.1 0,-1.2 1.3,-1.6 2.2,-1.9 5.6,-2.1 11.6,-2.8 17.4,-3.4 17.5,-1.5 35.1,-1.1 52.6,0.5 6.6,0.7 13.2,1.5 19.6,3.3 2.1,0.7 4.4,1.4 5.8,3.2 0.8,1.1 0.2,2.4 -0.6,3.3 1.3,-0.7 3.2,-1.6 2.9,-3.4 -0.5,-1.9 -2.4,-2.8 -3.9,-3.7 -5,-2.5 -10.4,-3.8 -15.8,-4.9 -15.7,-3.1 -31.8,-3.8 -47.8,-3.3 -12,0.4 -24.1,1.6 -35.9,3.6 -2.2,0.5 -4.6,0.9 -6.1,2.6 -1,1.1 -0.1,2.8 0.8,3.6 2.5,2.3 5.6,3.5 8.7,4.6"
       id="path180" /><path
       style="fill:none;stroke:#3471c0;stroke-width:0.0938;stroke-miterlimit:10"
       stroke-miterlimit="10"
       d="m 209.7,334.5 c 3.5,1.2 7.2,2.2 10.9,2.3 1.5,0 3.1,-0.1 4.4,-0.8 -4.5,-0.3 -9,-1.4 -13,-3.5 -0.9,-0.5 -1.9,-1 -2.2,-2.1 0,-1.2 1.3,-1.6 2.2,-1.9 5.6,-2.1 11.6,-2.8 17.4,-3.4 17.5,-1.5 35.1,-1.1 52.6,0.5 6.6,0.7 13.2,1.5 19.6,3.3 2.1,0.7 4.4,1.4 5.8,3.2 0.8,1.1 0.2,2.4 -0.6,3.3 1.3,-0.7 3.2,-1.6 2.9,-3.4 -0.5,-1.9 -2.4,-2.8 -3.9,-3.7 -5,-2.5 -10.4,-3.8 -15.8,-4.9 -15.7,-3.1 -31.8,-3.8 -47.8,-3.3 -12,0.4 -24.1,1.6 -35.9,3.6 -2.2,0.5 -4.6,0.9 -6.1,2.6 -1,1.1 -0.1,2.8 0.8,3.6 2.5,2.3 5.6,3.5 8.7,4.6 z"
       id="path182" /><path
       style="fill:#3471c0"
       d="m 305.8,321.3 c 3.9,1.4 8.1,2.8 11,5.9 -0.5,-3.4 -3.4,-5.7 -6.3,-7.2 -5.5,-2.9 -11.6,-4.2 -17.7,-5.2 -12.9,-2.1 -26,-2.6 -39,-2.4 -9,0.3 -17.9,0.7 -26.7,2.5 -2.1,0.6 -4.3,1 -6.1,2.2 7.8,-1.3 15.7,-1.8 23.6,-2.2 13,-0.3 26,0.2 39,1.8 7.4,1 15,2.3 22.2,4.6"
       id="path184" /><path
       style="fill:none;stroke:#3471c0;stroke-width:0.0938;stroke-miterlimit:10"
       stroke-miterlimit="10"
       d="m 305.8,321.3 c 3.9,1.4 8.1,2.8 11,5.9 -0.5,-3.4 -3.4,-5.7 -6.3,-7.2 -5.5,-2.9 -11.6,-4.2 -17.7,-5.2 -12.9,-2.1 -26,-2.6 -39,-2.4 -9,0.3 -17.9,0.7 -26.7,2.5 -2.1,0.6 -4.3,1 -6.1,2.2 7.8,-1.3 15.7,-1.8 23.6,-2.2 13,-0.3 26,0.2 39,1.8 7.4,1 15,2.3 22.2,4.6 z"
       id="path186" /><path
       style="fill:#e9232e"
       d="m 204.1,264.1 c 0.1,12.6 0,25.3 0.1,38 2.6,-0.1 5.2,0 7.8,-0.1 0,-14.2 0,-28.4 0,-42.6 -0.1,-3.9 -0.2,-8.1 -2.1,-11.6 -2.1,-3.8 -5.9,-6.5 -9.9,-8 -1.3,1.4 -2.4,2.8 -3.7,4.2 3.2,1.9 6.5,4.6 7.3,8.5 0.7,3.8 0.5,7.7 0.5,11.6"
       id="path188" /><path
       style="fill:none;stroke:#e9232e;stroke-width:0.0938;stroke-miterlimit:10"
       stroke-miterlimit="10"
       d="m 204.1,264.1 c 0.1,12.6 0,25.3 0.1,38 2.6,-0.1 5.2,0 7.8,-0.1 0,-14.2 0,-28.4 0,-42.6 -0.1,-3.9 -0.2,-8.1 -2.1,-11.6 -2.1,-3.8 -5.9,-6.5 -9.9,-8 -1.3,1.4 -2.4,2.8 -3.7,4.2 3.2,1.9 6.5,4.6 7.3,8.5 0.7,3.8 0.5,7.7 0.5,11.6 z"
       id="path190" /><path
       style="fill:#e9232e"
       d="m 228.9,268.9 c -1.7,-0.5 -3.3,-1.7 -3.7,-3.5 -0.6,-2 -0.4,-4.3 0.9,-6 1.2,-1.6 3.4,-2 5.4,-1.7 2.7,0.3 5,1.8 7.1,3.5 0,2.9 0,5.7 0,8.6 -3.2,0 -6.6,0.2 -9.7,-0.9 z m -9.6,17.9 c 5.2,2.3 11,3.4 16.7,2.8 2.9,-0.3 6,-1.4 7.9,-3.8 1.6,-2 2.1,-4.5 2.1,-7.1 l 0,-25.9 -5.8,0 c -0.2,1.3 -0.4,2.6 -0.6,3.9 -2.2,-1.7 -4.5,-3.3 -7.3,-4 -3.1,-0.9 -6.5,-0.8 -9.6,0.4 -2.3,1 -4.2,3.1 -4.8,5.6 -1,3.6 -0.5,7.8 2.1,10.7 2.2,2.6 5.7,3.9 9.1,4.6 3.1,0.6 6.3,0.6 9.5,0.6 -0.1,2.4 0.4,5.1 -1,7.2 -1.1,1.7 -3.2,2.3 -5.1,2.5 -4.1,0.3 -8.2,-0.7 -12.1,-2.1 -0.4,1.6 -0.7,3.1 -1.1,4.6"
       id="path192" /><path
       style="fill:none;stroke:#e9232e;stroke-width:0.0938;stroke-miterlimit:10"
       stroke-miterlimit="10"
       d="m 228.9,268.9 c -1.7,-0.5 -3.3,-1.7 -3.7,-3.5 -0.6,-2 -0.4,-4.3 0.9,-6 1.2,-1.6 3.4,-2 5.4,-1.7 2.7,0.3 5,1.8 7.1,3.5 0,2.9 0,5.7 0,8.6 -3.2,0 -6.6,0.2 -9.7,-0.9 z m -9.6,17.9 c 5.2,2.3 11,3.4 16.7,2.8 2.9,-0.3 6,-1.4 7.9,-3.8 1.6,-2 2.1,-4.5 2.1,-7.1 l 0,-25.9 -5.8,0 c -0.2,1.3 -0.4,2.6 -0.6,3.9 -2.2,-1.7 -4.5,-3.3 -7.3,-4 -3.1,-0.9 -6.5,-0.8 -9.6,0.4 -2.3,1 -4.2,3.1 -4.8,5.6 -1,3.6 -0.5,7.8 2.1,10.7 2.2,2.6 5.7,3.9 9.1,4.6 3.1,0.6 6.3,0.6 9.5,0.6 -0.1,2.4 0.4,5.1 -1,7.2 -1.1,1.7 -3.2,2.3 -5.1,2.5 -4.1,0.3 -8.2,-0.7 -12.1,-2.1 -0.4,1.6 -0.7,3.1 -1.1,4.6"
       id="path194" /><path
       style="fill:#e9232e"
       d="m 296.6,268.9 c -1.6,-0.5 -3.1,-1.8 -3.6,-3.5 -0.5,-1.9 -0.4,-4.2 0.9,-5.9 1.2,-1.7 3.5,-2 5.5,-1.8 2.6,0.4 5.1,1.8 7.1,3.6 -0.1,2.8 -0.1,5.7 -0.1,8.5 -3.2,0 -6.6,0.2 -9.8,-0.9 z m -9.4,18 c 5.2,2.2 11,3.4 16.7,2.7 2.9,-0.3 5.8,-1.4 7.7,-3.6 1.8,-2.1 2.3,-4.9 2.3,-7.6 -0.1,-8.6 0,-17.1 -0.1,-25.6 -1.9,0.1 -3.9,0 -5.8,0.1 -0.2,1.3 -0.3,2.6 -0.6,3.9 -2.7,-2.4 -5.9,-4.3 -9.6,-4.6 -3.3,-0.3 -7.1,0.2 -9.7,2.5 -2.8,2.6 -3.2,6.7 -2.5,10.2 0.6,3.3 3,5.9 6,7.4 4.6,2.2 9.8,2.3 14.8,2.3 0,2.3 0.4,4.8 -0.8,7 -0.9,1.7 -2.9,2.4 -4.8,2.6 -4.2,0.5 -8.5,-0.6 -12.5,-2 -0.4,1.6 -0.8,3.1 -1.1,4.7"
       id="path196" /><path
       style="fill:none;stroke:#e9232e;stroke-width:0.0938;stroke-miterlimit:10"
       stroke-miterlimit="10"
       d="m 296.6,268.9 c -1.6,-0.5 -3.1,-1.8 -3.6,-3.5 -0.5,-1.9 -0.4,-4.2 0.9,-5.9 1.2,-1.7 3.5,-2 5.5,-1.8 2.6,0.4 5.1,1.8 7.1,3.6 -0.1,2.8 -0.1,5.7 -0.1,8.5 -3.2,0 -6.6,0.2 -9.8,-0.9 z m -9.4,18 c 5.2,2.2 11,3.4 16.7,2.7 2.9,-0.3 5.8,-1.4 7.7,-3.6 1.8,-2.1 2.3,-4.9 2.3,-7.6 -0.1,-8.6 0,-17.1 -0.1,-25.6 -1.9,0.1 -3.9,0 -5.8,0.1 -0.2,1.3 -0.3,2.6 -0.6,3.9 -2.7,-2.4 -5.9,-4.3 -9.6,-4.6 -3.3,-0.3 -7.1,0.2 -9.7,2.5 -2.8,2.6 -3.2,6.7 -2.5,10.2 0.6,3.3 3,5.9 6,7.4 4.6,2.2 9.8,2.3 14.8,2.3 0,2.3 0.4,4.8 -0.8,7 -0.9,1.7 -2.9,2.4 -4.8,2.6 -4.2,0.5 -8.5,-0.6 -12.5,-2 -0.4,1.6 -0.8,3.1 -1.1,4.7"
       id="path198" /><path
       style="fill:#e9232e"
       d="m 250.4,289.2 8.1,0 c 1.6,-5.1 3.1,-10.2 4.7,-15.3 0.9,-3.1 2.1,-6.2 2.8,-9.4 0.3,-1.4 0.6,-2.9 1,-4.3 3.4,9.4 5.9,19.1 7.2,29 l 7.9,0 c -2.3,-12.5 -5.9,-24.8 -11.3,-36.3 l -9.2,0 c -3.8,12.1 -7.5,24.2 -11.2,36.3"
       id="path200" /><path
       style="fill:none;stroke:#e9232e;stroke-width:0.0938;stroke-miterlimit:10"
       stroke-miterlimit="10"
       d="m 250.4,289.2 8.1,0 c 1.6,-5.1 3.1,-10.2 4.7,-15.3 0.9,-3.1 2.1,-6.2 2.8,-9.4 0.3,-1.4 0.6,-2.9 1,-4.3 3.4,9.4 5.9,19.1 7.2,29 l 7.9,0 c -2.3,-12.5 -5.9,-24.8 -11.3,-36.3 l -9.2,0 c -3.8,12.1 -7.5,24.2 -11.2,36.3 z"
       id="path202" /><path
       style="fill:#e9232e"
       d="m 315.4,289.9 -0.9,0 0,0.3 2.3,0 0,-0.3 -1,0 0,-2.8 -0.4,0 0,2.8"
       id="path204" /><path
       style="fill:none;stroke:#e9232e;stroke-width:0.0938;stroke-miterlimit:10"
       stroke-miterlimit="10"
       d="m 315.4,289.9 -0.9,0 0,0.3 2.3,0 0,-0.3 -1,0 0,-2.8 -0.4,0 0,2.8 z"
       id="path206" /><path
       style="fill:#e9232e"
       d="m 319.8,288.5 c -0.1,0.4 -0.1,0.9 -0.1,1.3 l 0,0 c -0.1,-0.4 -0.2,-0.7 -0.4,-1.2 l -0.5,-1.5 -0.3,0 -0.6,1.5 c -0.1,0.4 -0.2,0.8 -0.3,1.2 l 0,0 c 0,-0.4 -0.1,-0.9 -0.1,-1.4 l -0.1,-1.3 -0.4,0 0.3,3.1 0.5,0 0.5,-1.5 c 0.1,-0.4 0.2,-0.7 0.3,-1.1 l 0,0 c 0.1,0.4 0.2,0.7 0.4,1.1 l 0.5,1.5 0.5,0 0.2,-3.1 -0.4,0 0,1.4"
       id="path208" /><path
       style="fill:none;stroke:#e9232e;stroke-width:0.0938;stroke-miterlimit:10"
       stroke-miterlimit="10"
       d="m 319.8,288.5 c -0.1,0.4 -0.1,0.9 -0.1,1.3 l 0,0 c -0.1,-0.4 -0.2,-0.7 -0.4,-1.2 l -0.5,-1.5 -0.3,0 -0.6,1.5 c -0.1,0.4 -0.2,0.8 -0.3,1.2 l 0,0 c 0,-0.4 -0.1,-0.9 -0.1,-1.4 l -0.1,-1.3 -0.4,0 0.3,3.1 0.5,0 0.5,-1.5 c 0.1,-0.4 0.2,-0.7 0.3,-1.1 l 0,0 c 0.1,0.4 0.2,0.7 0.4,1.1 l 0.5,1.5 0.5,0 0.2,-3.1 -0.4,0 0,1.4 z"
       id="path210" /></g></svg>