<?xml version="1.0" encoding="UTF-8" standalone="no"?>
<svg
   xmlns:dc="http://purl.org/dc/elements/1.1/"
   xmlns:cc="http://creativecommons.org/ns#"
   xmlns:rdf="http://www.w3.org/1999/02/22-rdf-syntax-ns#"
   xmlns:svg="http://www.w3.org/2000/svg"
   xmlns="http://www.w3.org/2000/svg"
   height="32"
   width="112.1"
   id="svg2"
   version="1.1"
   xml:space="preserve"
   viewBox="0 0 112.1 32"><metadata
     id="metadata8"><rdf:RDF><cc:Work
         rdf:about=""><dc:format>image/svg+xml</dc:format><dc:type
           rdf:resource="http://purl.org/dc/dcmitype/StillImage" /><dc:title></dc:title></cc:Work></rdf:RDF></metadata><defs
     id="defs6"><clipPath
       clipPathUnits="userSpaceOnUse"
       id="clipPath18"><path
         d="m 1007,104.6 -109.7,36.2 c 0,0 13.9,553.1 -185.6,591.8 -131.5,152.5 20.3,6510.4 498.3,21.8 0,0 -164,-82.1 -195,-221.6 -30.6,-139.5 -8,-428.2 -8,-428.2 z"
         id="path20" /></clipPath><linearGradient
       x1="0"
       y1="0"
       x2="1"
       y2="0"
       gradientUnits="userSpaceOnUse"
       gradientTransform="matrix(1256,-423.8,-382.3,-1127,283.7,2101)"
       spreadMethod="pad"
       id="linearGradient22"><stop
         style="stop-opacity:1;stop-color:#929669"
         offset="0"
         id="stop24" /><stop
         style="stop-opacity:1;stop-color:#929669"
         offset="0.230769"
         id="stop26" /><stop
         style="stop-opacity:1;stop-color:#929669"
         offset="0.84545184"
         id="stop28" /><stop
         style="stop-opacity:1;stop-color:#fcfbf0"
         offset="1"
         id="stop30" /></linearGradient><clipPath
       clipPathUnits="userSpaceOnUse"
       id="clipPath38"><path
         d="m 1065,638.7 c 0,0 950,625.3 728,1924.3 -215,944 -720,1254 -775,1373 -59.7,83 -119.9,232 -119.9,232 l 40.4,-2629 c 0,0 -83.6,-803.4 126.5,-900.3 z"
         id="path40" /></clipPath><linearGradient
       x1="0"
       y1="0"
       x2="1"
       y2="0"
       gradientUnits="userSpaceOnUse"
       gradientTransform="matrix(879.7,-3415,-3674,-589.1,743.9,4143)"
       spreadMethod="pad"
       id="linearGradient42"><stop
         style="stop-opacity:1;stop-color:#45aa3a"
         offset="0"
         id="stop44" /><stop
         style="stop-opacity:1;stop-color:#3c9439"
         offset="1"
         id="stop46" /></linearGradient><clipPath
       clipPathUnits="userSpaceOnUse"
       id="clipPath54"><path
         d="m 0,0 0,4179 14670,0 L 14670,0 0,0 Z"
         id="path56" /></clipPath><clipPath
       clipPathUnits="userSpaceOnUse"
       id="clipPath60"><path
         d="M 841.7,603.8 C 841.7,603.8 -49.13,1212 2.129,2284 53.39,3356 682.6,3883 805.1,3979 c 79.2,84 82.5,117 88.6,200 C 949.3,4060 940,2398 945.9,2203 968.7,1447 904,746.6 841.7,603.8 Z"
         id="path62" /></clipPath><linearGradient
       x1="0"
       y1="0"
       x2="1"
       y2="0"
       gradientUnits="userSpaceOnUse"
       gradientTransform="matrix(1540,349.8,481.1,-1438,-91.5,2174)"
       spreadMethod="pad"
       id="linearGradient64"><stop
         style="stop-opacity:1;stop-color:#40a73b"
         offset="0"
         id="stop66" /><stop
         style="stop-opacity:1;stop-color:#40a73b"
         offset="0.2336695"
         id="stop68" /><stop
         style="stop-opacity:1;stop-color:#5ebc45"
         offset="1"
         id="stop70" /></linearGradient><clipPath
       clipPathUnits="userSpaceOnUse"
       id="clipPath78"><path
         d="m 0,0 14670,0 0,4179 L 0,4179 0,0 Z"
         id="path80" /></clipPath></defs><g
     id="g10"
     transform="matrix(0.0577,0,0,-0.0578,0,32)"><g
       id="g12"
       transform="scale(0.1324,0.1324)"><g
         id="g14"><g
           id="g16"
           clip-path="url(#clipPath18)"><path
             d="m 1007,104.6 -109.7,36.2 c 0,0 13.9,553.1 -185.6,591.8 -131.5,152.5 20.3,6510.4 498.3,21.8 0,0 -164,-82.1 -195,-221.6 -30.6,-139.5 -8,-428.2 -8,-428.2"
             style="fill:url(#linearGradient22);fill-opacity:1;fill-rule:nonzero;stroke:none"
             id="path32" /></g></g><g
         id="g34"><g
           id="g36"
           clip-path="url(#clipPath38)"><path
             d="m 1065,638.7 c 0,0 950,625.3 728,1924.3 -215,944 -720,1254 -775,1373 -59.7,83 -119.9,232 -119.9,232 l 40.4,-2629 c 0,0 -83.6,-803.4 126.5,-900.3"
             style="fill:url(#linearGradient42);fill-opacity:1;fill-rule:nonzero;stroke:none"
             id="path48" /></g></g><g
         id="g50"><g
           id="g52"
           clip-path="url(#clipPath54)"><g
             id="g58"
             clip-path="url(#clipPath60)"><path
               d="m 841,603 0,1 -2,0 0,1 -1,0 0,1 -1,0 0,1 -2,0 0,1 -1,0 0,1 -2,0 0,1 -1,0 0,1 -1,0 0,1 -2,0 0,1 -1,0 0,1 -1,0 0,1 -2,0 0,1 -1,0 0,1 -1,0 0,1 -2,0 0,1 -1,0 0,1 -2,0 0,1 -1,0 0,1 -1,0 0,1 -1,0 0,1 -2,0 0,1 -1,0 0,1 -1,0 0,1 -2,0 0,1 -1,0 0,1 -1,0 0,1 -2,0 0,1 -1,0 0,1 -1,0 0,1 -2,0 0,1 -1,0 0,1 -1,0 0,1 -1,0 0,1 -2,0 0,1 -1,0 0,1 -1,0 0,1 -2,0 0,1 -1,0 0,1 -1,0 0,1 -1,0 0,1 -2,0 0,1 -1,0 0,1 -1,0 0,1 -1,0 0,1 -2,0 0,1 -1,0 0,1 -1,0 0,1 -1,0 0,1 -2,0 0,1 -1,0 0,1 -1,0 0,1 -1,0 0,1 -2,0 0,1 -1,0 0,1 -1,0 0,1 -1,0 0,1 -1,0 0,1 -2,0 0,1 -1,0 0,1 -1,0 0,1 -1,0 0,1 -2,0 0,1 -1,0 0,1 -1,0 0,1 -1,0 0,1 -1,0 0,1 -2,0 0,1 -1,0 0,1 -1,0 0,1 -1,0 0,1 -1,0 0,1 -2,0 0,1 -1,0 0,1 -1,0 0,1 -1,0 0,1 -1,0 0,1 -1,0 0,1 -2,0 0,1 -1,0 0,1 -1,0 0,1 -1,0 0,1 -1,0 0,1 -2,0 0,1 -1,0 0,1 -1,0 0,1 -1,0 0,1 -1,0 0,1 -1,0 0,1 -1,0 0,1 -2,0 0,1 -1,0 0,1 -1,0 0,1 -1,0 0,1 -1,0 0,1 -1,0 0,1 -2,0 0,1 -1,0 0,1 -1,0 0,1 -1,0 0,1 -1,0 0,1 -1,0 0,1 -1,0 0,1 -2,0 0,1 -1,0 0,1 -1,0 0,1 -1,0 0,1 -1,0 0,1 -1,0 0,1 -1,0 0,1 -1,0 0,1 -2,0 0,1 -1,0 0,1 -1,0 0,1 -1,0 0,1 -1,0 0,1 -1,0 0,1 -1,0 0,1 -1,0 0,1 -2,0 0,1 -1,0 0,1 -1,0 0,1 -1,0 0,1 -1,0 0,1 -1,0 0,1 -1,0 0,1 -1,0 0,1 -1,0 0,1 -1,0 0,1 -2,0 0,1 -1,0 0,1 -1,0 0,1 -1,0 0,1 -1,0 0,1 -1,0 0,1 -1,0 0,1 -1,0 0,1 -1,0 0,1 -1,0 0,1 -1,0 0,1 -2,0 0,1 -1,0 0,1 -1,0 0,1 -1,0 0,1 -1,0 0,1 -1,0 0,1 -1,0 0,1 -1,0 0,1 -1,0 0,1 -1,0 0,1 -1,0 0,1 -1,0 0,1 -1,0 0,1 -1,0 0,1 -1,0 0,1 -2,0 0,1 -1,0 0,1 -1,0 0,1 -1,0 0,1 -1,0 0,1 -1,0 0,1 -1,0 0,1 -1,0 0,1 -1,0 0,1 -1,0 0,1 -1,0 0,1 -1,0 0,1 -1,0 0,1 -1,0 0,1 -1,0 0,1 -1,0 0,1 -1,0 0,1 -1,0 0,1 -1,0 0,1 -1,0 0,1 -1,0 0,1 -1,0 0,1 -1,0 0,1 -1,0 0,1 -1,0 0,1 -2,0 0,1 -1,0 0,1 -1,0 0,1 -1,0 0,1 -1,0 0,1 -1,0 0,1 -1,0 0,1 -1,0 0,1 -1,0 0,1 -1,0 0,1 -1,0 0,1 -1,0 0,1 -1,0 0,1 -1,0 0,1 -1,0 0,1 -1,0 0,1 -1,0 0,1 -1,0 0,1 -1,0 0,1 -1,0 0,1 -1,0 0,1 -1,0 0,1 -1,0 0,1 -1,0 0,1 -1,0 0,1 -1,0 0,1 -1,0 0,1 -1,0 0,1 -1,0 0,1 -1,0 0,1 -1,0 0,1 -1,0 0,1 -1,0 0,1 -1,0 0,1 -1,0 0,1 -1,0 0,1 -1,0 0,1 -1,0 0,1 -1,0 0,1 -1,0 0,2 -1,0 0,1 -1,0 0,1 -1,0 0,1 -1,0 0,1 -1,0 0,1 -1,0 0,1 -1,0 0,1 -1,0 0,1 -1,0 0,1 -1,0 0,1 -1,0 0,1 -1,0 0,1 -1,0 0,1 -1,0 0,1 -1,0 0,1 -1,0 0,1 -1,0 0,1 -1,0 0,1 -1,0 0,1 -1,0 0,1 -1,0 0,1 -1,0 0,1 -1,0 0,1 -1,0 0,1 -1,0 0,2 -1,0 0,1 -1,0 0,1 -1,0 0,1 -1,0 0,1 -1,0 0,1 -1,0 0,1 -1,0 0,1 -1,0 0,1 -1,0 0,1 -1,0 0,1 -1,0 0,1 -1,0 0,1 -1,0 0,1 -1,0 0,2 -1,0 0,1 -1,0 0,1 -1,0 0,1 -1,0 0,1 -1,0 0,1 -1,0 0,1 -1,0 0,1 -1,0 0,1 -1,0 0,1 -1,0 0,1 -1,0 0,1 -1,0 0,2 -1,0 0,1 -1,0 0,1 -1,0 0,1 -1,0 0,1 -1,0 0,1 -1,0 0,1 -1,0 0,1 -1,0 0,1 -1,0 0,1 -1,0 0,2 -1,0 0,1 -1,0 0,1 -1,0 0,1 -1,0 0,1 -1,0 0,1 -1,0 0,1 -1,0 0,1 -1,0 0,1 -1,0 0,2 -1,0 0,1 -1,0 0,1 -1,0 0,1 -1,0 0,1 -1,0 0,1 -1,0 0,1 -1,0 0,1 -1,0 0,2 -1,0 0,1 -1,0 0,1 -1,0 0,1 -1,0 0,1 -1,0 0,1 -1,0 0,1 -1,0 0,2 -1,0 0,1 -1,0 0,1 -1,0 0,1 -1,0 0,1 -1,0 0,1 -1,0 0,1 -1,0 0,2 -1,0 0,1 -1,0 0,1 -1,0 0,1 -1,0 0,1 -1,0 0,1 -1,0 0,2 -1,0 0,1 -1,0 0,1 -1,0 0,1 -1,0 0,1 -1,0 0,1 -1,0 0,2 -1,0 0,1 -1,0 0,1 -1,0 0,1 -1,0 0,1 -1,0 0,1 -1,0 0,2 -1,0 0,1 -1,0 0,1 -1,0 0,1 -1,0 0,1 -1,0 0,2 -1,0 0,1 -1,0 0,1 -1,0 0,1 -1,0 0,1 -1,0 0,2 -1,0 0,1 -1,0 0,1 -1,0 0,1 -1,0 0,1 -1,0 0,2 -1,0 0,1 -1,0 0,1 -1,0 0,1 -1,0 0,1 -1,0 0,2 -1,0 0,1 -1,0 0,1 -1,0 0,1 -1,0 0,2 -1,0 0,1 -1,0 0,1 -1,0 0,1 -1,0 0,1 -1,0 0,2 -1,0 0,1 -1,0 0,1 -1,0 0,1 -1,0 0,2 -1,0 0,1 -1,0 0,1 -1,0 0,1 -1,0 0,1 -1,0 0,2 -1,0 0,1 -1,0 0,1 -1,0 0,2 -1,0 0,1 -1,0 0,1 -1,0 0,1 -1,0 0,2 -1,0 0,1 -1,0 0,1 -1,0 0,1 -1,0 0,2 -1,0 0,1 -1,0 0,1 -1,0 0,1 -1,0 0,2 -1,0 0,1 -1,0 0,1 -1,0 0,1 -1,0 0,2 -1,0 0,1 -1,0 0,1 -1,0 0,2 -1,0 0,1 -1,0 0,1 -1,0 0,2 -1,0 0,1 -1,0 0,1 -1,0 0,1 -1,0 0,2 -1,0 0,1 -1,0 0,1 -1,0 0,2 -1,0 0,1 -1,0 0,1 -1,0 0,2 -1,0 0,1 -1,0 0,1 -1,0 0,1 -1,0 0,2 -1,0 0,1 -1,0 0,1 -1,0 0,2 -1,0 0,1 -1,0 0,1 -1,0 0,2 -1,0 0,1 -1,0 0,2 -1,0 0,1 -1,0 0,1 -1,0 0,2 -1,0 0,1 -1,0 0,1 -1,0 0,2 -1,0 0,1 -1,0 0,1 -1,0 0,2 -1,0 0,1 -1,0 0,1 -1,0 0,2 -1,0 0,1 -1,0 0,1 -1,0 0,2 -1,0 0,1 -1,0 0,2 -1,0 0,1 -1,0 0,1 -1,0 0,2 -1,0 0,1 -1,0 0,1 -1,0 0,2 -1,0 0,1 -1,0 0,2 -1,0 0,1 -1,0 0,1 -1,0 0,2 -1,0 0,1 -1,0 0,2 -1,0 0,1 -1,0 0,1 -1,0 0,2 -1,0 0,1 -1,0 0,2 -1,0 0,1 -1,0 0,1 -1,0 0,2 -1,0 0,1 -1,0 0,2 -1,0 0,1 -1,0 0,2 -1,0 0,1 -1,0 0,2 -1,0 0,1 -1,0 0,1 -1,0 0,2 -1,0 0,1 -1,0 0,2 -1,0 0,1 -1,0 0,2 -1,0 0,1 -1,0 0,1 -1,0 0,2 -1,0 0,1 -1,0 0,2 -1,0 0,1 -1,0 0,2 -1,0 0,1 -1,0 0,2 -1,0 0,1 -1,0 0,2 -1,0 0,1 -1,0 0,2 -1,0 0,1 -1,0 0,2 -1,0 0,1 -1,0 0,2 -1,0 0,1 -1,0 0,2 -1,0 0,1 -1,0 0,2 -1,0 0,1 -1,0 0,2 -1,0 0,1 -1,0 0,2 -1,0 0,1 -1,0 0,2 -1,0 0,1 -1,0 0,2 -1,0 0,1 -1,0 0,2 -1,0 0,2 -1,0 0,1 -1,0 0,2 -1,0 0,1 -1,0 0,2 -1,0 0,1 -1,0 0,2 -1,0 0,1 -1,0 0,2 -1,0 0,1 -1,0 0,2 -1,0 0,2 -1,0 0,1 -1,0 0,2 -1,0 0,1 -1,0 0,2 -1,0 0,2 -1,0 0,1 -1,0 0,2 -1,0 0,1 -1,0 0,2 -1,0 0,2 -1,0 0,1 -1,0 0,2 -1,0 0,1 -1,0 0,2 -1,0 0,2 -1,0 0,1 -1,0 0,2 -1,0 0,1 -1,0 0,2 -1,0 0,2 -1,0 0,1 -1,0 0,2 -1,0 0,2 -1,0 0,1 -1,0 0,2 -1,0 0,2 -1,0 0,1 -1,0 0,2 -1,0 0,2 -1,0 0,1 -1,0 0,2 -1,0 0,2 -1,0 0,1 -1,0 0,2 -1,0 0,2 -1,0 0,1 -1,0 0,2 -1,0 0,2 -1,0 0,1 -1,0 0,2 -1,0 0,2 -1,0 0,2 -1,0 0,1 -1,0 0,2 -1,0 0,2 -1,0 0,2 -1,0 0,1 -1,0 0,2 -1,0 0,2 -1,0 0,2 -1,0 0,1 -1,0 0,2 -1,0 0,2 -1,0 0,1 -1,0 0,2 -1,0 0,2 -1,0 0,2 -1,0 0,2 -1,0 0,1 -1,0 0,2 -1,0 0,2 -1,0 0,2 -1,0 0,2 -1,0 0,1 -1,0 0,2 -1,0 0,2 -1,0 0,2 -1,0 0,2 -1,0 0,1 -1,0 0,2 -1,0 0,2 -1,0 0,2 -1,0 0,2 -1,0 0,2 -1,0 0,1 -1,0 0,2 -1,0 0,2 -1,0 0,2 -1,0 0,2 -1,0 0,2 -1,0 0,2 -1,0 0,2 -1,0 0,2 -1,0 0,1 -1,0 0,2 -1,0 0,2 -1,0 0,2 -1,0 0,2 -1,0 0,2 -1,0 0,2 -1,0 0,2 -1,0 0,2 -1,0 0,2 -1,0 0,2 -1,0 0,1 -1,0 0,2 -1,0 0,2 -1,0 0,2 -1,0 0,2 -1,0 0,2 -1,0 0,2 -1,0 0,2 -1,0 0,2 -1,0 0,2 -1,0 0,2 -1,0 0,2 -1,0 0,2 -1,0 0,2 -1,0 0,2 -1,0 0,2 -1,0 0,2 -1,0 0,2 -1,0 0,3 -1,0 0,2 -1,0 0,2 -1,0 0,2 -1,0 0,2 -1,0 0,2 -1,0 0,2 -1,0 0,2 -1,0 0,2 -1,0 0,2 -1,0 0,2 -1,0 0,3 -1,0 0,2 -1,0 0,2 -1,0 0,2 -1,0 0,2 -1,0 0,2 -1,0 0,2 -1,0 0,3 -1,0 0,2 -1,0 0,2 -1,0 0,2 -1,0 0,2 -1,0 0,3 -1,0 0,2 -1,0 0,2 -1,0 0,2 -1,0 0,2 -1,0 0,3 -1,0 0,2 -1,0 0,2 -1,0 0,2 -1,0 0,3 -1,0 0,2 -1,0 0,2 -1,0 0,3 -1,0 0,2 -1,0 0,2 -1,0 0,3 -1,0 0,2 -1,0 0,2 -1,0 0,3 -1,0 0,2 -1,0 0,2 -1,0 0,3 -1,0 0,2 -1,0 0,2 -1,0 0,3 -1,0 0,2 -1,0 0,3 -1,0 0,2 -1,0 0,2 -1,0 0,3 -1,0 0,2 -1,0 0,3 -1,0 0,2 -1,0 0,3 -1,0 0,2 -1,0 0,3 -1,0 0,2 -1,0 0,3 -1,0 0,2 -1,0 0,3 -1,0 0,2 -1,0 0,3 -1,0 0,3 -1,0 0,2 -1,0 0,3 -1,0 0,3 -1,0 0,2 -1,0 0,3 -1,0 0,2 -1,0 0,3 -1,0 0,3 -1,0 0,2 -1,0 0,3 -1,0 0,3 -1,0 0,2 -1,0 0,3 -1,0 0,3 -1,0 0,3 -1,0 0,3 -1,0 0,2 -1,0 0,3 -1,0 0,3 -1,0 0,3 -1,0 0,3 -1,0 0,3 -1,0 0,2 -1,0 0,3 -1,0 0,3 -1,0 0,3 -1,0 0,3 -1,0 0,3 -1,0 0,3 -1,0 0,3 -1,0 0,3 -1,0 0,3 -1,0 0,3 -1,0 0,3 -1,0 0,3 -1,0 0,3 -1,0 0,3 -1,0 0,3 -1,0 0,4 -1,0 0,3 -1,0 0,3 -1,0 0,3 -1,0 0,4 -1,0 0,3 -1,0 0,3 -1,0 0,4 -1,0 0,3 -1,0 0,3 -1,0 0,3 -1,0 0,4 -1,0 0,3 -1,0 0,4 -1,0 0,3 -1,0 0,4 -1,0 0,3 -1,0 0,4 -1,0 0,4 -1,0 0,3 -1,0 0,4 -1,0 0,3 -1,0 0,4 -1,0 0,4 -1,0 0,3 -1,0 0,4 -1,0 0,4 -1,0 0,4 -1,0 0,4 -1,0 0,4 -1,0 0,4 -1,0 0,4 -1,0 0,4 -1,0 0,4 -1,0 0,4 -1,0 0,4 -1,0 0,5 -1,0 0,4 -1,0 0,4 -1,0 0,5 -1,0 0,4 -1,0 0,5 -1,0 0,4 -1,0 0,4 -1,0 0,5 -1,0 0,5 -1,0 0,5 -1,0 0,5 -1,0 0,5 -1,0 0,5 -1,0 0,4 -1,0 0,5 -1,0 0,5 -1,0 0,6 -1,0 0,5 -1,0 0,6 -1,0 0,6 -1,0 0,5 -1,0 0,6 -1,0 0,6 -1,0 0,5 -1,0 0,6 -1,0 0,7 -1,0 0,7 -1,0 0,6 -1,0 0,7 -1,0 0,7 -1,0 0,6 -1,0 0,8 -1,0 0,8 -1,0 0,8 -1,0 0,8 -1,0 0,8 -1,0 0,8 -1,0 0,11 -1,0 0,10 -1,0 0,10 -1,0 0,10 -1,0 0,12 -1,0 0,14 -1,0 0,14 -1,0 0,15 -1,0 0,22 -1,0 0,22 -1,0 0,117 1,0 0,29 1,0 0,18 1,0 0,15 1,0 0,15 1,0 0,15 1,0 0,16 1,0 0,15 1,0 0,13 1,0 0,10 1,0 0,10 1,0 0,10 1,0 0,10 1,0 0,10 1,0 0,10 1,0 0,10 1,0 0,10 1,0 0,9 1,0 0,8 1,0 0,8 1,0 0,7 1,0 0,7 1,0 0,8 1,0 0,7 1,0 0,7 1,0 0,8 1,0 0,7 1,0 0,7 1,0 0,8 1,0 0,7 1,0 0,7 1,0 0,6 1,0 0,6 1,0 0,6 1,0 0,5 1,0 0,6 1,0 0,6 1,0 0,6 1,0 0,6 1,0 0,5 1,0 0,6 1,0 0,6 1,0 0,6 1,0 0,6 1,0 0,5 1,0 0,6 1,0 0,5 1,0 0,5 1,0 0,5 1,0 0,5 1,0 0,4 1,0 0,5 1,0 0,5 1,0 0,5 1,0 0,5 1,0 0,4 1,0 0,5 1,0 0,5 1,0 0,5 1,0 0,5 1,0 0,4 1,0 0,5 1,0 0,5 1,0 0,5 1,0 0,4 1,0 0,4 1,0 0,4 1,0 0,4 1,0 0,4 1,0 0,4 1,0 0,4 1,0 0,5 1,0 0,4 1,0 0,4 1,0 0,4 1,0 0,4 1,0 0,4 1,0 0,4 1,0 0,4 1,0 0,4 1,0 0,4 1,0 0,4 1,0 0,4 1,0 0,4 1,0 0,4 1,0 0,4 1,0 0,4 1,0 0,3 1,0 0,4 1,0 0,3 1,0 0,4 1,0 0,3 1,0 0,4 1,0 0,3 1,0 0,4 1,0 0,3 1,0 0,4 1,0 0,4 1,0 0,3 1,0 0,4 1,0 0,3 1,0 0,4 1,0 0,3 1,0 0,4 1,0 0,3 1,0 0,4 1,0 0,3 1,0 0,4 1,0 0,3 1,0 0,3 1,0 0,3 1,0 0,3 1,0 0,3 1,0 0,4 1,0 0,3 1,0 0,3 1,0 0,3 1,0 0,3 1,0 0,3 1,0 0,3 1,0 0,4 1,0 0,3 1,0 0,3 1,0 0,3 1,0 0,3 1,0 0,3 1,0 0,3 1,0 0,3 1,0 0,4 1,0 0,3 1,0 0,3 1,0 0,3 1,0 0,3 1,0 0,3 1,0 0,2 1,0 0,3 1,0 0,3 1,0 0,3 1,0 0,3 1,0 0,2 1,0 0,3 1,0 0,3 1,0 0,3 1,0 0,3 1,0 0,3 1,0 0,2 1,0 0,3 1,0 0,3 1,0 0,3 1,0 0,3 1,0 0,2 1,0 0,3 1,0 0,3 1,0 0,3 1,0 0,3 1,0 0,2 1,0 0,3 1,0 0,3 1,0 0,3 1,0 0,2 1,0 0,3 1,0 0,2 1,0 0,3 1,0 0,2 1,0 0,3 1,0 0,2 1,0 0,3 1,0 0,3 1,0 0,2 1,0 0,3 1,0 0,2 1,0 0,3 1,0 0,2 1,0 0,3 1,0 0,2 1,0 0,3 1,0 0,2 1,0 0,3 1,0 0,2 1,0 0,3 1,0 0,3 1,0 0,2 1,0 0,3 1,0 0,2 1,0 0,3 1,0 0,2 1,0 0,3 1,0 0,2 1,0 0,2 1,0 0,3 1,0 0,2 1,0 0,2 1,0 0,3 1,0 0,2 1,0 0,2 1,0 0,2 1,0 0,3 1,0 0,2 1,0 0,2 1,0 0,3 1,0 0,2 1,0 0,2 1,0 0,3 1,0 0,2 1,0 0,2 1,0 0,3 1,0 0,2 1,0 0,2 1,0 0,3 1,0 0,2 1,0 0,2 1,0 0,3 1,0 0,2 1,0 0,2 1,0 0,3 1,0 0,2 1,0 0,2 1,0 0,2 1,0 0,2 1,0 0,2 1,0 0,2 1,0 0,3 1,0 0,2 1,0 0,2 1,0 0,2 1,0 0,2 1,0 0,2 1,0 0,2 1,0 0,2 1,0 0,3 1,0 0,2 1,0 0,2 1,0 0,2 1,0 0,2 1,0 0,2 1,0 0,2 1,0 0,3 1,0 0,2 1,0 0,2 1,0 0,2 1,0 0,2 1,0 0,2 1,0 0,2 1,0 0,2 1,0 0,3 1,0 0,2 1,0 0,2 1,0 0,2 1,0 0,2 1,0 0,2 1,0 0,2 1,0 0,2 1,0 0,2 1,0 0,1 1,0 0,2 1,0 0,2 1,0 0,2 1,0 0,2 1,0 0,2 1,0 0,2 1,0 0,2 1,0 0,2 1,0 0,2 1,0 0,2 1,0 0,2 1,0 0,2 1,0 0,2 1,0 0,2 1,0 0,2 1,0 0,2 1,0 0,2 1,0 0,2 1,0 0,2 1,0 0,2 1,0 0,2 1,0 0,2 1,0 0,2 1,0 0,2 1,0 0,2 1,0 0,1 1,0 0,2 1,0 0,2 1,0 0,2 1,0 0,2 1,0 0,2 1,0 0,1 1,0 0,2 1,0 0,2 1,0 0,2 1,0 0,2 1,0 0,2 1,0 0,1 1,0 0,2 1,0 0,2 1,0 0,2 1,0 0,2 1,0 0,1 1,0 0,2 1,0 0,2 1,0 0,2 1,0 0,2 1,0 0,2 1,0 0,1 1,0 0,2 1,0 0,2 1,0 0,2 1,0 0,2 1,0 0,2 1,0 0,1 1,0 0,2 1,0 0,2 1,0 0,2 1,0 0,1 1,0 0,2 1,0 0,2 1,0 0,2 1,0 0,1 1,0 0,2 1,0 0,2 1,0 0,1 1,0 0,2 1,0 0,2 1,0 0,2 1,0 0,1 1,0 0,2 1,0 0,2 1,0 0,1 1,0 0,2 1,0 0,2 1,0 0,1 1,0 0,2 1,0 0,2 1,0 0,2 1,0 0,1 1,0 0,2 1,0 0,2 1,0 0,1 1,0 0,2 1,0 0,2 1,0 0,2 1,0 0,1 1,0 0,2 1,0 0,2 1,0 0,1 1,0 0,2 1,0 0,2 1,0 0,1 1,0 0,2 1,0 0,1 1,0 0,2 1,0 0,2 1,0 0,1 1,0 0,2 1,0 0,1 1,0 0,2 1,0 0,2 1,0 0,1 1,0 0,2 1,0 0,1 1,0 0,2 1,0 0,2 1,0 0,1 1,0 0,2 1,0 0,1 1,0 0,2 1,0 0,2 1,0 0,1 1,0 0,2 1,0 0,1 1,0 0,2 1,0 0,2 1,0 0,1 1,0 0,2 1,0 0,1 1,0 0,2 1,0 0,2 1,0 0,1 1,0 0,2 1,0 0,1 1,0 0,2 1,0 0,1 1,0 0,2 1,0 0,1 1,0 0,2 1,0 0,1 1,0 0,2 1,0 0,1 1,0 0,2 1,0 0,1 1,0 0,2 1,0 0,1 1,0 0,2 1,0 0,1 1,0 0,2 1,0 0,1 1,0 0,2 1,0 0,1 1,0 0,2 1,0 0,1 1,0 0,2 1,0 0,1 1,0 0,2 1,0 0,1 1,0 0,2 1,0 0,1 1,0 0,2 1,0 0,1 1,0 0,2 1,0 0,1 1,0 0,2 1,0 0,1 1,0 0,2 1,0 0,1 1,0 0,2 1,0 0,1 1,0 0,1 1,0 0,2 1,0 0,1 1,0 0,2 1,0 0,1 1,0 0,2 1,0 0,1 1,0 0,1 1,0 0,2 1,0 0,1 1,0 0,2 1,0 0,1 1,0 0,1 1,0 0,2 1,0 0,1 1,0 0,2 1,0 0,1 1,0 0,2 1,0 0,1 1,0 0,1 1,0 0,2 1,0 0,1 1,0 0,2 1,0 0,1 1,0 0,2 1,0 0,1 1,0 0,1 1,0 0,2 1,0 0,1 1,0 0,2 1,0 0,1 1,0 0,1 1,0 0,2 1,0 0,1 1,0 0,1 1,0 0,2 1,0 0,1 1,0 0,1 1,0 0,2 1,0 0,1 1,0 0,1 1,0 0,2 1,0 0,1 1,0 0,1 1,0 0,2 1,0 0,1 1,0 0,1 1,0 0,2 1,0 0,1 1,0 0,1 1,0 0,2 1,0 0,1 1,0 0,2 1,0 0,1 1,0 0,1 1,0 0,2 1,0 0,1 1,0 0,1 1,0 0,2 1,0 0,1 1,0 0,1 1,0 0,2 1,0 0,1 1,0 0,1 1,0 0,1 1,0 0,2 1,0 0,1 1,0 0,1 1,0 0,2 1,0 0,1 1,0 0,1 1,0 0,1 1,0 0,2 1,0 0,1 1,0 0,1 1,0 0,2 1,0 0,1 1,0 0,1 1,0 0,1 1,0 0,2 1,0 0,1 1,0 0,1 1,0 0,1 1,0 0,2 1,0 0,1 1,0 0,1 1,0 0,2 1,0 0,1 1,0 0,1 1,0 0,1 1,0 0,2 1,0 0,1 1,0 0,1 1,0 0,1 1,0 0,2 1,0 0,1 1,0 0,1 1,0 0,1 1,0 0,2 1,0 0,1 1,0 0,1 1,0 0,1 1,0 0,2 1,0 0,1 1,0 0,1 1,0 0,1 1,0 0,1 1,0 0,2 1,0 0,1 1,0 0,1 1,0 0,1 1,0 0,1 1,0 0,2 1,0 0,1 1,0 0,1 1,0 0,1 1,0 0,2 1,0 0,1 1,0 0,1 1,0 0,1 1,0 0,1 1,0 0,2 1,0 0,1 1,0 0,1 1,0 0,1 1,0 0,1 1,0 0,2 1,0 0,1 1,0 0,1 1,0 0,1 1,0 0,1 1,0 0,1 1,0 0,2 1,0 0,1 1,0 0,1 1,0 0,1 1,0 0,1 1,0 0,1 1,0 0,2 1,0 0,1 1,0 0,1 1,0 0,1 1,0 0,1 1,0 0,1 1,0 0,2 1,0 0,1 1,0 0,1 1,0 0,1 1,0 0,1 1,0 0,1 1,0 0,1 1,0 0,2 1,0 0,1 1,0 0,1 1,0 0,1 1,0 0,1 1,0 0,1 1,0 0,2 1,0 0,1 1,0 0,1 1,0 0,1 1,0 0,1 1,0 0,1 1,0 0,1 1,0 0,1 1,0 0,1 1,0 0,2 1,0 0,1 1,0 0,1 1,0 0,1 1,0 0,1 1,0 0,1 1,0 0,1 1,0 0,1 1,0 0,1 1,0 0,2 1,0 0,1 1,0 0,1 1,0 0,1 1,0 0,1 1,0 0,1 1,0 0,1 1,0 0,1 1,0 0,1 1,0 0,1 1,0 0,2 1,0 0,1 1,0 0,1 1,0 0,1 1,0 0,1 1,0 0,1 1,0 0,1 1,0 0,1 1,0 0,1 1,0 0,1 1,0 0,1 1,0 0,1 1,0 0,1 1,0 0,2 1,0 0,1 1,0 0,1 1,0 0,1 1,0 0,1 1,0 0,1 1,0 0,1 1,0 0,1 1,0 0,1 1,0 0,1 1,0 0,1 1,0 0,1 1,0 0,1 1,0 0,1 1,0 0,1 1,0 0,1 1,0 0,1 1,0 0,2 1,0 0,1 1,0 0,1 1,0 0,1 1,0 0,1 1,0 0,1 1,0 0,1 1,0 0,1 1,0 0,1 1,0 0,1 1,0 0,1 1,0 0,1 1,0 0,1 1,0 0,1 1,0 0,1 1,0 0,1 1,0 0,1 1,0 0,1 1,0 0,1 1,0 0,1 1,0 0,1 1,0 0,1 1,0 0,1 1,0 0,1 1,0 0,1 1,0 0,1 1,0 0,1 1,0 0,1 1,0 0,1 1,0 0,1 1,0 0,1 1,0 0,1 1,0 0,1 1,0 0,1 1,0 0,1 1,0 0,1 1,0 0,1 1,0 0,1 1,0 0,1 1,0 0,1 1,0 0,1 1,0 0,1 1,0 0,1 1,0 0,1 1,0 0,1 1,0 0,1 1,0 0,1 1,0 0,1 1,0 0,1 1,0 0,1 1,0 0,1 1,0 0,1 1,0 0,1 1,0 0,1 2,0 0,1 1,0 0,1 1,0 0,1 1,0 0,1 1,0 0,1 1,0 0,1 1,0 0,1 1,0 0,1 1,0 0,1 1,0 0,1 1,0 0,1 1,0 0,1 1,0 0,1 1,0 0,1 1,0 0,1 1,0 0,1 1,0 0,1 1,0 0,1 2,0 0,1 1,0 0,1 1,0 0,1 1,0 0,1 1,0 0,1 1,0 0,1 1,0 0,1 1,0 0,1 1,0 0,1 1,0 0,1 1,0 0,1 1,0 0,1 1,0 0,1 2,0 0,1 1,0 0,1 1,0 0,1 1,0 0,1 1,0 0,1 1,0 0,1 1,0 0,1 1,0 0,1 1,0 0,1 2,0 0,1 1,0 0,1 1,0 0,1 1,0 0,1 1,0 0,1 1,0 0,1 1,0 0,1 1,0 0,1 1,0 0,1 2,0 0,1 1,0 0,1 1,0 0,1 1,0 0,1 1,0 0,1 1,0 0,1 2,0 0,1 1,0 0,1 1,0 0,1 1,0 0,1 1,0 0,1 1,0 0,1 1,0 0,1 2,0 0,1 1,0 0,1 1,0 0,1 1,0 0,1 1,0 0,1 1,0 0,1 2,0 0,1 1,0 0,1 1,0 0,1 1,0 0,1 1,0 0,1 1,0 0,1 2,0 0,1 1,0 0,1 1,0 0,1 1,0 0,1 1,0 0,1 2,0 0,1 1,0 0,1 1,0 0,1 1,0 0,1 1,0 0,1 2,0 0,1 1,0 0,1 1,0 0,1 1,0 0,1 2,0 0,1 1,0 0,1 1,0 0,1 1,0 0,1 1,0 0,1 2,0 0,1 1,0 0,1 1,0 0,1 1,0 0,1 2,0 0,1 1,0 0,1 1,0 0,1 2,0 0,1 1,0 0,1 1,0 0,1 1,0 0,1 2,0 0,1 1,0 0,1 1,0 0,1 1,0 0,1 1,0 0,2 1,0 0,1 1,0 0,1 1,0 0,1 1,0 0,1 1,0 0,1 1,0 0,1 1,0 0,1 1,0 0,1 1,0 0,1 1,0 0,1 1,0 0,2 1,0 0,1 1,0 0,1 1,0 0,1 1,0 0,1 1,0 0,1 1,0 0,2 1,0 0,1 1,0 0,1 1,0 0,1 1,0 0,1 1,0 0,1 1,0 0,1 1,0 0,2 1,0 0,1 1,0 0,1 1,0 0,1 1,0 0,2 1,0 0,1 1,0 0,1 1,0 0,1 1,0 0,2 1,0 0,1 1,0 0,1 1,0 0,1 1,0 0,2 1,0 0,1 1,0 0,1 1,0 0,2 1,0 0,1 1,0 0,2 1,0 0,1 1,0 0,1 1,0 0,2 1,0 0,1 1,0 0,2 1,0 0,1 1,0 0,2 1,0 0,1 1,0 0,2 1,0 0,1 1,0 0,2 1,0 0,2 1,0 0,1 1,0 0,2 1,0 0,2 1,0 0,1 1,0 0,2 1,0 0,2 1,0 0,2 1,0 0,2 1,0 0,2 1,0 0,2 1,0 0,2 1,0 0,2 1,0 0,3 1,0 0,2 1,0 0,2 1,0 0,3 1,0 0,3 1,0 0,3 1,0 0,3 1,0 0,3 1,0 0,4 1,0 0,3 1,0 0,5 1,0 0,4 1,0 0,6 1,0 0,6 1,0 0,6 1,0 0,8 1,0 0,10 1,0 0,11 1,0 0,12 1,0 0,9 2,0 0,-3 1,0 0,-2 1,0 0,-4 1,0 0,-3 1,0 0,-4 1,0 0,-5 1,0 0,-4 1,0 0,-6 1,0 0,-6 1,0 0,-6 1,0 0,-7 1,0 0,-7 1,0 0,-8 1,0 0,-9 1,0 0,-9 1,0 0,-10 1,0 0,-10 1,0 0,-11 1,0 0,-12 1,0 0,-13 1,0 0,-14 1,0 0,-14 1,0 0,-15 1,0 0,-16 1,0 0,-18 1,0 0,-18 1,0 0,-19 1,0 0,-21 1,0 0,-22 1,0 0,-24 1,0 0,-25 1,0 0,-26 1,0 0,-28 1,0 0,-31 1,0 0,-33 1,0 0,-35 1,0 0,-38 1,0 0,-41 1,0 0,-45 1,0 0,-48 1,0 0,-54 1,0 0,-59 1,0 0,-66 1,0 0,-74 1,0 0,-86 1,0 0,-101 1,0 0,-121 1,0 0,-153 1,0 0,-198 1,0 0,-214 1,0 0,-129 1,0 0,-54 1,0 0,-37 1,0 0,-40 1,0 0,-51 1,0 0,-71 1,0 0,-224 -1,0 0,-72 -1,0 0,-52 -1,0 0,-40 -1,0 0,-37 -1,0 0,-32 -1,0 0,-30 -1,0 0,-26 -1,0 0,-27 -1,0 0,-23 -1,0 0,-23 -1,0 0,-21 -1,0 0,-20 -1,0 0,-20 -1,0 0,-19 -1,0 0,-18 -1,0 0,-18 -1,0 0,-17 -1,0 0,-16 -1,0 0,-16 -1,0 0,-15 -1,0 0,-15 -1,0 0,-15 -1,0 0,-14 -1,0 0,-14 -1,0 0,-14 -1,0 0,-13 -1,0 0,-13 -1,0 0,-13 -1,0 0,-12 -1,0 0,-12 -1,0 0,-12 -1,0 0,-11 -1,0 0,-12 -1,0 0,-11 -1,0 0,-11 -1,0 0,-10 -1,0 0,-11 -1,0 0,-10 -1,0 0,-10 -1,0 0,-10 -1,0 0,-10 -1,0 0,-10 -1,0 0,-9 -1,0 0,-9 -1,0 0,-9 -1,0 0,-10 -1,0 0,-9 -1,0 0,-8 -1,0 0,-8 -1,0 0,-9 -1,0 0,-8 -1,0 0,-8 -1,0 0,-8 -1,0 0,-8 -1,0 0,-8 -1,0 0,-7 -1,0 0,-8 -1,0 0,-7 -1,0 0,-7 -1,0 0,-7 -1,0 0,-7 -1,0 0,-7 -1,0 0,-7 -1,0 0,-6 -1,0 0,-7 -1,0 0,-6 -1,0 0,-7 -1,0 0,-6 -1,0 0,-6 -1,0 0,-6 -1,0 0,-6 -1,0 0,-6 -1,0 0,-5 -1,0 0,-6 -1,0 0,-5 -1,0 0,-6 -1,0 0,-5 -1,0 0,-5 -1,0 0,-5 -1,0 0,-5 -1,0 0,-5 -1,0 0,-5 -1,0 0,-5 -1,0 0,-4 -1,0 0,-5 -1,0 0,-4 -1,0 0,-4 -1,0 0,-5 -1,0 0,-4 -1,0 0,-4 -1,0 0,-4 -1,0 0,-4 -1,0 0,-3 -1,0 0,-4 -1,0 0,-4 -1,0 0,-3 -1,0 0,-4 -1,0 0,-3 -1,0 0,-3 -1,0 0,-3 -1,0 0,-3 -1,0 0,-3 -1,0 0,-3 -1,0 0,-3 -1,0 0,-2 -1,0 0,-3 -1,0 0,-2 -1,0 0,-3 -1,0 0,-1"
               style="fill:url(#linearGradient64);fill-opacity:1;fill-rule:nonzero;stroke:none"
               id="path72" /></g></g></g><g
         id="g74"><g
           id="g76"
           clip-path="url(#clipPath78)"><path
             d="m 11610,949.9 c 60,-50.4 190,-71.1 300,-71.1 140,0 280,26.7 420,151.2 140,127 240,323 240,634 0,299 -120,542 -350,685 -130,82 -300,115 -500,115 -60,0 -110,-3 -150,-18 -10,-6 -20,-29 -20,-41 -10,-54 -10,-459 -10,-699 0,-246 0,-590 10,-632 0,-35 20,-97.4 60,-124.1 z M 11010,2597 c 50,0 240,-8 330,-8 170,0 290,8 600,8 270,0 490,-71 650,-207 190,-166 290,-397 290,-679 0,-400 -180,-631 -360,-761.1 -190,-136.3 -420,-213.3 -760,-213.3 -180,0 -490,5.9 -750,8.8 l 0,0 c -20,23.8 20,116.2 40,118.6 70,7.9 90,10.5 120,23.9 50,22.4 70,50.2 70,148.1 10,184 10,403 10,652 0,178 0,524 0,634 -10,92 -50,115 -130,133 -40,9 -90,18 -170,27 0,18 40,98 60,115"
             style="fill:#bfbdba;fill-opacity:1;fill-rule:nonzero;stroke:none"
             id="path82" /><path
             d="m 13680,2452 c -20,-3 -30,-32 -30,-47 0,-107 -10,-385 -10,-578 0,-6 10,-15 20,-15 40,-3 130,-6 210,-6 120,0 180,15 220,33 100,47 140,151 140,264 0,257 -180,355 -450,355 -10,0 -70,0 -100,-6 z m 680,-1185 c 0,261 -190,409 -550,409 -10,0 -120,3 -150,-3 -10,-3 -20,-9 -20,-15 0,-187 0,-486 10,-604 0,-51 40,-121.9 90,-142.6 40,-26.7 150,-32.6 230,-32.6 200,0 390,115.6 390,388.2 z m -1230,1330 c 30,0 110,-8 310,-8 200,0 350,5 540,5 230,0 550,-83 550,-426 0,-169 -120,-305 -280,-371 -10,-3 -10,-9 0,-11 220,-57 420,-193 420,-454 0,-255 -160,-414.7 -390,-515.4 -140,-62.3 -320,-83 -490,-83 -140,0 -500,14.8 -700,11.8 -20,8.9 20,103.8 40,118.6 40,2.9 80,6.4 130,21.2 70,17.8 80,41 90,147.8 10,92 10,421 10,655 0,320 0,536 0,643 -10,83 -40,109 -90,124 -50,9 -120,18 -180,27 -20,15 30,104 40,115"
             style="fill:#bfbdba;fill-opacity:1;fill-rule:nonzero;stroke:none"
             id="path84" /><path
             d="m 2400,737.9 c -5,7.9 -11,31.5 -10,59.9 1,21.5 5,35.2 10,39.9 56,8.9 83,15 115,23.5 53,13.1 73,41.8 76,109.6 9,160.2 9,459.2 6,670.2 l 0,6 c 0,23 1,54 -28,76 -41,27 -93,50 -159,69 -25,8 -39,21 -38,36 1,15 16,34 49,41 87,8 315,63 404,104 5,-6 14,-20 12,-43 -1,-9 -1,-19 -2,-29 -3,-30 -6,-63 -6,-97 0,-10 11,-19 23,-19 5,0 11,2 15,6 170,133 323,181 401,181 129,0 229,-61 307,-188 4,-7 11,-10 17,-10 7,0 13,3 17,9 156,118 312,189 415,189 246,0 393,-184 393,-491 0,-88 -1,-200 -2,-305 -1,-92 -1,-177.8 -1,-237.3 0,-14.4 19,-54.5 48,-62.5 36,-17.4 88,-26.4 153,-37.6 l 3,-0.5 c 5,-17.6 -6,-86.2 -16,-100.2 -16,0.1 -38,1.3 -66,2.7 -51,2.6 -121,6.2 -203,6.2 -163,0 -248,-3.3 -330,-8.5 -6,20.3 -8,86 0,99.7 47,8.8 71,14.8 99,23.3 52,17.1 67,40.6 70,109.5 1,49.2 11,480.2 -6,583.2 -15,106 -96,230 -271,230 -65,0 -170,-27 -270,-103 -6,-6 -9,-18 -9,-25 l 0,-2 c 12,-56 12,-120 12,-218 0,-55 -1,-114 -1,-173 -1,-119 -1,-231 1,-315.7 0,-57.8 35,-71.6 63,-82.8 15,-3.4 27,-6.3 39,-9.2 24,-5.7 48,-11.5 84,-17.3 5,-11.4 6,-45.4 -1,-74.6 -4,-16 -8,-23.1 -10,-25.4 -91,3.1 -184,5.8 -319,5.8 -40,0 -107,-1.8 -166,-3.3 -47,-1.3 -92,-2.5 -118,-2.6 -4,5.8 -9,24.6 -9,51.6 0,25.1 5,42.9 10,48.3 12,2.3 24,4.5 36,6.5 31,5.6 58,10.4 85,16.8 44,13.6 61,38.3 64,94.8 9,132.1 15,512.1 -3,607.1 -32,152 -119,230 -259,230 -82,0 -185,-40 -270,-103 -14,-10 -25,-37 -25,-61 0,-45 0,-99 0,-157 0,-191 -1,-428 3,-530.8 3,-31.6 14,-69.2 74,-83.1 13,-3.6 36,-7.4 62,-11.7 15,-2.5 31,-5.2 48,-8.2 6,-16.4 2,-80.4 -8,-100.3 -26,0.1 -58,1.6 -95,3.3 -56,2.4 -126,5.6 -206,5.6 -94,0 -159,-3.2 -211,-5.6 -36,-1.7 -66,-3.2 -96,-3.3 l 0,0"
             style="fill:#414043;fill-opacity:1;fill-rule:nonzero;stroke:none"
             id="path86" /><path
             d="m 5376,1846 c -54,0 -105,-14 -143,-40 -105,-63 -158,-190 -158,-375 0,-348 175,-590.9 424,-590.9 74,0 134,21.2 184,64.7 76,62.5 117,190.2 117,369.2 0,342 -170,572 -424,572 l 0,0 z m 48,-1134.8 c -451,0 -611,329.8 -611,639.8 0,215 88,384 263,501 124,76 272,120 405,120 344,0 585,-247 585,-601 0,-240 -97,-430.1 -278,-548.8 -87,-53.4 -238,-111 -364,-111 l 0,0"
             style="fill:#414043;fill-opacity:1;fill-rule:nonzero;stroke:none"
             id="path88" /><path
             d="m 10040,1846 c -50,0 -101,-14 -139,-40 -105,-63 -158,-190 -158,-375 0,-348 175,-590.9 427,-590.9 70,0 130,21.2 180,64.7 80,62.5 120,190.2 120,368.2 0,343 -170,573 -430,573 l 0,0 z m 50,-1134.8 c -449,0 -609,329.8 -609,638.8 0,216 88,385 263,502 124,76 276,120 406,120 340,0 580,-247 580,-601 0,-240 -90,-430.2 -270,-548.7 -90,-53.5 -240,-111.1 -370,-111.1 l 0,0"
             style="fill:#414043;fill-opacity:1;fill-rule:nonzero;stroke:none"
             id="path90" /><path
             d="m 8536,1858 c -139,0 -229,-110 -229,-279 0,-172 77,-371 295,-371 37,0 105,16 138,53 51,47 84,142 84,244 0,221 -108,353 -288,353 l 0,0 z M 8518,687.5 c -52,0 -90,-15.1 -113,-27.9 -110,-70.4 -161,-140.7 -161,-221.7 0,-76.4 30,-137.1 93,-191 78,-65.4 182,-97.2 319,-97.2 269,0 390,144.7 390,288.2 0,99.8 -50,166.7 -153,204.5 -80,29.1 -213,45.1 -375,45.1 l 0,0 z M 8536,0 c -162,0 -279,34.11 -378,110.7 -97,74.7 -141,185.5 -141,262 0,22 6,78.9 53,133.3 29,32 94,91.9 245,195.6 5,1.7 8,6.3 8,11.8 0,6.2 -4,11.2 -10,12.4 -124,47.5 -162,125.6 -173,167.9 0,1.5 -1,3.9 -1,6.5 -4,16.6 -7,32.3 15,48.5 18,12.4 46,28.9 75,46.4 44,25.9 94,54.9 121,78.9 4,4 6,10 5,16 -1,7 -5,12 -10,14 -184,62 -277,199 -277,407 0,134 62,255 170,333 74,58 260,128 381,128 l 7,0 c 123,-3 193,-29 290,-64 52,-20 102,-28 171,-28 103,0 148,33 186,70 2,-5 7,-19 10,-53 2,-34 -7,-85 -34,-122 -21,-29 -69,-50 -115,-50 -5,0 -9,0 -13,1 -48,5 -70,11 -70,11 l -12,-4 c -3,-5 -1,-11 2,-18 1,-2 2,-4 2,-5 6,-24 17,-94 17,-114 0,-218 -87,-313 -180,-383 -88,-67 -192,-107 -309,-120 l 0,0 c -3,0 -14,-1 -36,-3 -15,-1 -33,-2 -35,-2 l -3,-1 c -20,-6 -73,-31 -73,-77 0,-39.1 24,-87.2 138,-95.8 23,-1.7 48,-3.4 74,-5.2 151,-10.5 339,-23.5 427,-53.5 122,-44.3 198,-153.3 198,-284.3 C 9261,375.5 9121,191.5 8888,79.1 8775,25.89 8660,0 8536,0 l 0,0"
             style="fill:#414043;fill-opacity:1;fill-rule:nonzero;stroke:none"
             id="path92" /><path
             d="m 7803,846.8 c -66,8.9 -114,17.8 -171,44.4 -9,6 -21,32.6 -21,41.5 -6,92.3 -6,358.3 -6,533.3 0,142 -24,267 -84,356 -72,100 -174,160 -306,160 -117,0 -273,-80 -402,-190 -3,-3 -23,-22 -22,7 0,30 5,89 7,126 3,38 -19,55 -19,55 -84,-41 -321,-97 -408,-106 -64,-13 -80,-74 -12,-95 l 0,0 c 0,0 0,-1 1,-1 71,-21 119,-44 155,-67 27,-21 24,-51 24,-75 3,-198 3,-503 -6,-669.2 -3,-65.2 -21,-88.9 -69,-100.8 l 4,1.5 c -36,-8.8 -66,-14.8 -111,-20.7 -15,-14.8 -15,-100.7 0,-118.6 30,0 183,9 309,9 174,0 264,-9 309,-9 18,20.8 24,100.8 12,118.6 -51,2.9 -87,8.9 -123,17.8 -48,11.8 -60,35.5 -63,88.9 -6,139.5 -6,435.5 -6,637.5 0,56 15,83 33,97 60,54 159,89 246,89 84,0 141,-26 183,-62 57,-47 78,-116 84,-166 12,-113 9,-338 9,-533 0,-107 -9,-133.7 -48,-145.5 -18,-8.9 -66,-17.8 -123,-23.7 -18,-17.8 -12,-100.7 0,-118.6 78,0 168,9 300,9 165,0 270,-9 312,-9 18,20.8 24,97.9 12,118.6"
             style="fill:#414043;fill-opacity:1;fill-rule:nonzero;stroke:none"
             id="path94" /></g></g></g></g></svg>