<?xml version="1.0" encoding="UTF-8" standalone="no"?>
<svg
   xmlns:dc="http://purl.org/dc/elements/1.1/"
   xmlns:cc="http://creativecommons.org/ns#"
   xmlns:rdf="http://www.w3.org/1999/02/22-rdf-syntax-ns#"
   xmlns:svg="http://www.w3.org/2000/svg"
   xmlns="http://www.w3.org/2000/svg"
   id="svg3336"
   version="1.1"
   xml:space="preserve"
   width="31"
   height="32"
   viewBox="0 0 31 32"><metadata
     id="metadata3342"><rdf:RDF><cc:Work
         rdf:about=""><dc:format>image/svg+xml</dc:format><dc:type
           rdf:resource="http://purl.org/dc/dcmitype/StillImage" /><dc:title></dc:title></cc:Work></rdf:RDF></metadata><defs
     id="defs3340"><clipPath
       clipPathUnits="userSpaceOnUse"
       id="clipPath3350"><path
         d="M 0,600 600,600 600,0 0,0 0,600 Z"
         id="path3352" /></clipPath><linearGradient
       x1="0"
       y1="0"
       x2="1"
       y2="0"
       gradientUnits="userSpaceOnUse"
       gradientTransform="matrix(-38.06,-77.65,-77.65,38.06,258.7,355.3)"
       spreadMethod="pad"
       id="linearGradient3394"><stop
         style="stop-opacity:1;stop-color:#006cb3"
         offset="0"
         id="stop3396" /><stop
         style="stop-opacity:1;stop-color:#006cb3"
         offset="0.5288"
         id="stop3398" /><stop
         style="stop-opacity:1;stop-color:#00ffab"
         offset="1"
         id="stop3400" /></linearGradient><linearGradient
       x1="0"
       y1="0"
       x2="1"
       y2="0"
       gradientUnits="userSpaceOnUse"
       gradientTransform="matrix(106.8,78.91,78.91,-106.8,235.2,314.6)"
       spreadMethod="pad"
       id="linearGradient3416"><stop
         style="stop-opacity:1;stop-color:#006cb3"
         offset="0"
         id="stop3418" /><stop
         style="stop-opacity:1;stop-color:#006cb3"
         offset="0.1376"
         id="stop3420" /><stop
         style="stop-opacity:1;stop-color:#7611a9"
         offset="0.6974"
         id="stop3422" /><stop
         style="stop-opacity:1;stop-color:#7611a9"
         offset="0.9081"
         id="stop3424" /><stop
         style="stop-opacity:1;stop-color:#7611a9"
         offset="1"
         id="stop3426" /></linearGradient><clipPath
       clipPathUnits="userSpaceOnUse"
       id="clipPath3434"><path
         d="m 239,373.4 -42.1,-24.3 c -1.6,-0.9 -2.5,-2.6 -2.5,-4.4 l 0,-48.7 c 0,-1.8 0.9,-3.5 2.5,-4.4 L 239,267.3 c 1.6,-0.9 3.5,-0.9 5.1,0 l 42.1,24.3 c 1.6,0.9 2.6,2.6 2.6,4.4 l 0,48.7 c 0,1.8 -1,3.5 -2.6,4.4 l -42.1,24.3 c -0.8,0.4 -1.6,0.7 -2.5,0.7 -0.9,0 -1.8,-0.3 -2.6,-0.7"
         id="path3436" /></clipPath><linearGradient
       x1="0"
       y1="0"
       x2="1"
       y2="0"
       gradientUnits="userSpaceOnUse"
       gradientTransform="matrix(97.42,0,0,-97.42,192.9,382.2)"
       spreadMethod="pad"
       id="linearGradient3450"><stop
         style="stop-opacity:1;stop-color:#7611a9"
         offset="0"
         id="stop3452" /><stop
         style="stop-opacity:1;stop-color:#7611a9"
         offset="0.0919"
         id="stop3454" /><stop
         style="stop-opacity:1;stop-color:#7611a9"
         offset="0.3026"
         id="stop3456" /><stop
         style="stop-opacity:1;stop-color:#006cb3"
         offset="0.8624"
         id="stop3458" /><stop
         style="stop-opacity:1;stop-color:#006cb3"
         offset="1"
         id="stop3460" /></linearGradient><linearGradient
       x1="0"
       y1="0"
       x2="1"
       y2="0"
       gradientUnits="userSpaceOnUse"
       gradientTransform="matrix(97.42,0,0,-97.42,192.9,320.3)"
       spreadMethod="pad"
       id="linearGradient3476"><stop
         style="stop-opacity:1;stop-color:#7611a9"
         offset="0"
         id="stop3478" /><stop
         style="stop-opacity:1;stop-color:#7611a9"
         offset="0.0919"
         id="stop3480" /><stop
         style="stop-opacity:1;stop-color:#7611a9"
         offset="0.3026"
         id="stop3482" /><stop
         style="stop-opacity:1;stop-color:#006cb3"
         offset="0.8624"
         id="stop3484" /><stop
         style="stop-opacity:1;stop-color:#006cb3"
         offset="1"
         id="stop3486" /></linearGradient><clipPath
       clipPathUnits="userSpaceOnUse"
       id="clipPath3494"><path
         d="m 239,373.4 -42.1,-24.3 c -1.6,-0.9 -2.5,-2.6 -2.5,-4.4 l 0,-48.7 c 0,-1.8 0.9,-3.5 2.5,-4.4 L 239,267.3 c 1.6,-0.9 3.5,-0.9 5.1,0 l 42.1,24.3 c 1.6,0.9 2.6,2.6 2.6,4.4 l 0,48.7 c 0,1.8 -1,3.5 -2.6,4.4 l -42.1,24.3 c -0.8,0.4 -1.6,0.7 -2.5,0.7 -0.9,0 -1.8,-0.3 -2.6,-0.7"
         id="path3496" /></clipPath><linearGradient
       x1="0"
       y1="0"
       x2="1"
       y2="0"
       gradientUnits="userSpaceOnUse"
       gradientTransform="matrix(97.42,0,0,-97.42,192.9,292.5)"
       spreadMethod="pad"
       id="linearGradient3510"><stop
         style="stop-opacity:1;stop-color:#7611a9"
         offset="0"
         id="stop3512" /><stop
         style="stop-opacity:1;stop-color:#7611a9"
         offset="0.0919"
         id="stop3514" /><stop
         style="stop-opacity:1;stop-color:#7611a9"
         offset="0.3026"
         id="stop3516" /><stop
         style="stop-opacity:1;stop-color:#006cb3"
         offset="0.8624"
         id="stop3518" /><stop
         style="stop-opacity:1;stop-color:#006cb3"
         offset="1"
         id="stop3520" /></linearGradient><clipPath
       clipPathUnits="userSpaceOnUse"
       id="clipPath3528"><path
         d="m 239,373.4 -42.1,-24.3 c -1.6,-0.9 -2.5,-2.6 -2.5,-4.4 l 0,-48.7 c 0,-1.8 0.9,-3.5 2.5,-4.4 L 239,267.3 c 1.6,-0.9 3.5,-0.9 5.1,0 l 42.1,24.3 c 1.6,0.9 2.6,2.6 2.6,4.4 l 0,48.7 c 0,1.8 -1,3.5 -2.6,4.4 l -42.1,24.3 c -0.8,0.4 -1.6,0.7 -2.5,0.7 -0.9,0 -1.8,-0.3 -2.6,-0.7"
         id="path3530" /></clipPath><linearGradient
       x1="0"
       y1="0"
       x2="1"
       y2="0"
       gradientUnits="userSpaceOnUse"
       gradientTransform="matrix(97.42,0,0,-97.42,192.9,280)"
       spreadMethod="pad"
       id="linearGradient3544"><stop
         style="stop-opacity:1;stop-color:#7611a9"
         offset="0"
         id="stop3546" /><stop
         style="stop-opacity:1;stop-color:#7611a9"
         offset="0.0919"
         id="stop3548" /><stop
         style="stop-opacity:1;stop-color:#7611a9"
         offset="0.3026"
         id="stop3550" /><stop
         style="stop-opacity:1;stop-color:#006cb3"
         offset="0.8624"
         id="stop3552" /><stop
         style="stop-opacity:1;stop-color:#006cb3"
         offset="1"
         id="stop3554" /></linearGradient><clipPath
       clipPathUnits="userSpaceOnUse"
       id="clipPath3562"><path
         d="m 239,373.4 -42.1,-24.3 c -1.6,-0.9 -2.5,-2.6 -2.5,-4.4 l 0,-48.7 c 0,-1.8 0.9,-3.5 2.5,-4.4 L 239,267.3 c 1.6,-0.9 3.5,-0.9 5.1,0 l 42.1,24.3 c 1.6,0.9 2.6,2.6 2.6,4.4 l 0,48.7 c 0,1.8 -1,3.5 -2.6,4.4 l -42.1,24.3 c -0.8,0.4 -1.6,0.7 -2.5,0.7 -0.9,0 -1.8,-0.3 -2.6,-0.7"
         id="path3564" /></clipPath><linearGradient
       x1="0"
       y1="0"
       x2="1"
       y2="0"
       gradientUnits="userSpaceOnUse"
       gradientTransform="matrix(-60.08,-122.6,-122.6,60.08,304.5,357.6)"
       spreadMethod="pad"
       id="linearGradient3578"><stop
         style="stop-opacity:1;stop-color:#006cb3"
         offset="0"
         id="stop3580" /><stop
         style="stop-opacity:1;stop-color:#006cb3"
         offset="0.5288"
         id="stop3582" /><stop
         style="stop-opacity:1;stop-color:#00ffab"
         offset="1"
         id="stop3584" /></linearGradient></defs><g
     id="g3344"
     transform="matrix(0.2489,0,0,-0.2467,-60.31,72.73)"><g
       id="g3354"
       transform="translate(297,165.1)"><path
         d="m 0,0 c -1.46,0 -2.912,0.381 -4.19,1.121 l -13.34,7.892 c -1.99,1.117 -1.02,1.507 -0.36,1.737 2.66,0.92 3.19,1.14 6.03,2.74 0.3,0.17 0.69,0.11 0.99,-0.1 L -0.62,7.335 c 0.371,-0.206 0.895,-0.206 1.237,0 L 40.57,30.39 c 0.37,0.21 0.61,0.64 0.61,1.08 l 0,46.11 c 0,0.45 -0.24,0.87 -0.62,1.1 L 0.624,101.7 c -0.369,0.2 -0.859,0.2 -1.231,0 L -40.53,78.67 c -0.39,-0.22 -0.63,-0.66 -0.63,-1.09 l 0,-46.11 c 0,-0.44 0.24,-0.85 0.63,-1.06 l 10.94,-6.33 c 5.94,-2.97 9.57,0.53 9.57,4.04 l 0,45.52 c 0,0.65 0.52,1.15 1.17,1.15 l 5.06,0 c 0.63,0 1.16,-0.5 1.16,-1.15 l 0,-45.52 c 0,-7.92 -4.32,-12.47 -11.83,-12.47 -2.31,0 -4.13,0 -9.2,2.51 l -10.48,6.03 c -2.59,1.49 -4.19,4.29 -4.19,7.28 l 0,46.11 c 0,2.99 1.6,5.79 4.19,7.28 l 39.95,23.04 c 2.528,1.5 5.888,1.5 8.396,0 L 44.15,84.86 c 2.59,-1.5 4.2,-4.29 4.2,-7.28 l 0,-46.11 c 0,-2.99 -1.61,-5.78 -4.2,-7.28 L 4.206,1.121 C 2.929,0.381 1.48,0 0,0"
         style="fill:#004e00;fill-opacity:1;fill-rule:nonzero;stroke:none"
         id="path3356" /></g><g
       id="g3358"
       transform="translate(309.3,196.8)"><path
         d="m 0,0 c -17.48,0 -21.14,8.024 -21.14,14.76 0,0.64 0.51,1.15 1.15,1.15 l 5.16,0 c 0.58,0 1.06,-0.42 1.15,-0.98 0.78,-5.26 3.11,-7.914 13.68,-7.914 8.416,0 12,1.904 12,6.374 0,2.57 -1.02,4.48 -14.096,5.76 -10.934,1.08 -17.694,3.5 -17.694,12.24 0,8.06 6.8,12.87 18.188,12.87 12.802,0 19.132,-4.44 19.932,-13.97 0,-0.33 -0.1,-0.65 -0.3,-0.89 -0.22,-0.23 -0.53,-0.37 -0.85,-0.37 l -5.18,0 c -0.54,0 -1.02,0.38 -1.13,0.9 -1.24,5.54 -4.265,7.3 -12.472,7.3 -9.188,0 -10.258,-3.2 -10.258,-5.6 0,-2.9 1.26,-3.75 13.668,-5.39 C 14.09,24.62 19.92,22.32 19.92,13.69 19.92,4.986 12.66,0 0,0"
         style="fill:#004e00;fill-opacity:1;fill-rule:nonzero;stroke:none"
         id="path3360" /></g><g
       id="g3362"
       transform="translate(357.9,245.7)"><path
         d="m 0,0 1.343,0 c 1.098,0 1.304,0.773 1.304,1.221 0,1.183 -0.816,1.183 -1.264,1.183 L 0,2.404 0,0 Z m -1.632,3.789 2.975,0 c 1.019,0 3.016,0 3.016,-2.283 0,-1.589 -1.019,-1.914 -1.632,-2.118 1.184,-0.081 1.264,-0.856 1.426,-1.955 0.08,-0.692 0.206,-1.875 0.448,-2.281 l -1.831,0 C 2.73,-4.442 2.441,-2.241 2.441,-2.12 2.322,-1.63 2.156,-1.387 1.546,-1.387 l -1.506,0 0,-3.461 -1.672,0 0,8.637 z m -3.563,-4.298 c 0,-3.586 2.893,-6.479 6.436,-6.479 3.586,0 6.478,2.954 6.478,6.479 0,3.584 -2.932,6.436 -6.478,6.436 -3.503,0 -6.436,-2.81 -6.436,-6.436 M 8.96,-0.531 c 0,-4.236 -3.464,-7.699 -7.699,-7.699 -4.197,0 -7.7,3.422 -7.7,7.699 0,4.359 3.586,7.701 7.7,7.701 4.156,0 7.699,-3.342 7.699,-7.701"
         style="fill:#004e00;fill-opacity:1;fill-rule:nonzero;stroke:none"
         id="path3364" /></g><g
       id="g3430"><g
         id="g3432"
         clip-path="url(#clipPath3434)"><g
           id="g3438"><g
             id="g3440"><g
               id="g3446"><g
                 id="g3448"><path
                   d="m 237.6,382.3 -0.6,-0.3 0.8,0 -0.2,0.3 z"
                   style="fill:url(#linearGradient3450);stroke:none"
                   id="path3462" /></g></g></g></g></g></g><g
       id="g3490"><g
         id="g3492"
         clip-path="url(#clipPath3494)"><g
           id="g3498"><g
             id="g3500"><g
               id="g3506"><g
                 id="g3508"><path
                   d="m 290.3,292.4 -0.3,0.5 0,-0.7 0.3,0.2 z"
                   style="fill:url(#linearGradient3510);stroke:none"
                   id="path3522" /></g></g></g></g></g></g><g
       id="g3524"><g
         id="g3526"
         clip-path="url(#clipPath3528)"><g
           id="g3532"><g
             id="g3534"><g
               id="g3540"><g
                 id="g3542"><path
                   d="m 286.4,291.6 -42.2,-24.3 c -0.6,-0.4 -1.2,-0.6 -1.9,-0.7 l 0.9,-1.5 46.8,27.1 0,0.7 -1.2,1.9 c -0.3,-1.3 -1.2,-2.5 -2.4,-3.2"
                   style="fill:url(#linearGradient3544);stroke:none"
                   id="path3556" /></g></g></g></g></g></g></g></svg>