<?xml version="1.0" encoding="UTF-8" standalone="no"?>
<svg
   xmlns:dc="http://purl.org/dc/elements/1.1/"
   xmlns:cc="http://creativecommons.org/ns#"
   xmlns:rdf="http://www.w3.org/1999/02/22-rdf-syntax-ns#"
   xmlns:svg="http://www.w3.org/2000/svg"
   xmlns="http://www.w3.org/2000/svg"
   id="svg2"
   viewBox="0 0 2.741 1.067"
   height="32"
   width="82.23"
   y="0px"
   x="0px"
   version="1.1">
  <metadata
     id="metadata16">
    <rdf:RDF>
      <cc:Work
         rdf:about="">
        <dc:format>image/svg+xml</dc:format>
        <dc:type
           rdf:resource="http://purl.org/dc/dcmitype/StillImage" />
        <dc:title></dc:title>
      </cc:Work>
    </rdf:RDF>
  </metadata>
  <defs
     id="defs14" />
  <path
     style="fill:#cb3837"
     id="path4"
     d="m 0,6.667e-4 2.741,0 0,0.9140333 -1.37,0 0,0.1523 -0.61,0 0,-0.1523 L 0,0.9147 0,6.667e-4 Z M 0.152,0.7627 l 0.305,0 0,-0.458 0.152,0 0,0.458 0.152,0 0,-0.61 -0.609,0 0,0.61 z m 0.762,-0.61 0,0.762 0.305,0 0,-0.152 0.304,0 0,-0.61 -0.609,0 z m 0.305,0.152 0.152,0 0,0.305 -0.152,0 0,-0.305 z m 0.457,-0.152 0,0.61 0.305,0 0,-0.458 0.152,0 0,0.458 0.152,0 0,-0.458 0.156,0 0,0.458 0.15,0 0,-0.61 -0.915,0 z" />
  <polygon
     style="fill:#ffffff"
     transform="matrix(0.1524,0,0,0.1524,0,6.667e-4)"
     id="polygon6"
     points="1,1 1,5 3,5 3,2 4,2 4,5 5,5 5,1 " />
  <path
     style="fill:#ffffff"
     id="path8"
     d="m 0.914,0.1527 0,0.762 0.305,0 0,-0.152 0.304,0 0,-0.61 -0.609,0 z m 0.457,0.457 -0.152,0 0,-0.305 0.152,0 0,0.305 z" />
  <polygon
     style="fill:#ffffff"
     transform="matrix(0.1524,0,0,0.1524,0,6.667e-4)"
     id="polygon10"
     points="15,2 16,2 16,5 17,5 17,1 11,1 11,5 13,5 13,2 14,2 14,5 15,5 " />
</svg>
