<?xml version="1.0" encoding="UTF-8" standalone="no"?>
<svg
   xmlns:dc="http://purl.org/dc/elements/1.1/"
   xmlns:cc="http://creativecommons.org/ns#"
   xmlns:rdf="http://www.w3.org/1999/02/22-rdf-syntax-ns#"
   xmlns:svg="http://www.w3.org/2000/svg"
   xmlns="http://www.w3.org/2000/svg"
   height="32"
   width="72"
   id="svg2"
   xml:space="preserve"
   enable-background="new 0 0 100 100"
   viewBox="0 0 72 32"
   y="0px"
   x="0px"
   version="1.1"><metadata
     id="metadata32"><rdf:RDF><cc:Work
         rdf:about=""><dc:format>image/svg+xml</dc:format><dc:type
           rdf:resource="http://purl.org/dc/dcmitype/StillImage" /><dc:title></dc:title></cc:Work></rdf:RDF></metadata><defs
     id="defs30" /><g
     transform="matrix(0.339,0,0,0.3215,-6.399e-5,-0.0016)"
     id="g4"><g
       id="g6"><g
         id="g8"><path
           id="path10"
           d="m 35.52,1.253 0,0 c 0,-0.02 0,-0.03 0,-0.05 C 31.87,-2.388 21.28,2.365 11.82,11.83 2.358,21.29 -2.395,31.88 1.201,35.48 c 0.02,0 0.03,0 0.05,0 l 0,0 30.709,30.71 c 0,0 0,0 0,0 3.59,3.6 14.18,-1.16 23.64,-10.62 C 65.1,46.19 69.86,35.6 66.26,32 c 0,0 0,0 0,0 l 0,0 L 35.52,1.253 Z M 53.78,53.79 C 43.9,63.67 35.44,65.98 33.86,64.4 c 0,0 0,0 0,0 -1.56,-1.6 0.77,-10.05 10.63,-19.91 9.86,-9.85 18.3,-12.18 19.91,-10.63 0,0 0,0 0,0 1.58,1.58 -0.74,10.04 -10.62,19.92 z" /></g></g><g
       id="g12"><path
         id="path14"
         d="m 97.55,97.56 c -1.03,1.03 -2.7,1.03 -3.73,0 L 59.36,63.1 c -1.03,-1.03 -1.03,-2.7 0,-3.73 1.03,-1.03 2.7,-1.03 3.73,0 l 34.46,34.46 c 1.03,1.03 1.03,2.7 0,3.73 z" /></g><g
       id="g16"><path
         id="path18"
         d="m 98.95,66.05 c -0.79,0.78 -2.02,1.01 -3.06,0.48 L 66.91,51.73 c -1.3,-0.66 -1.82,-2.24 -1.15,-3.54 0.66,-1.29 2.25,-1.81 3.54,-1.15 l 28.98,14.8 c 1.3,0.66 1.82,2.24 1.15,3.54 -0.13,0.25 -0.29,0.47 -0.48,0.67 z" /></g><g
       id="g20"><path
         id="path22"
         d="m 66.24,98.75 c -0.19,0.19 -0.41,0.36 -0.67,0.48 -1.29,0.67 -2.88,0.15 -3.54,-1.14 L 47.24,69.11 c -0.67,-1.3 -0.15,-2.89 1.15,-3.55 1.29,-0.66 2.88,-0.15 3.54,1.15 l 14.79,28.98 c 0.54,1.04 0.31,2.28 -0.48,3.06 z" /></g></g><text
     transform="scale(1.027,0.9738)"
     id="text3360"
     y="18.350761"
     x="37.453125"
     style="font-style:normal;font-weight:normal;font-size:9.9068px;line-height:125%;font-family:sans-serif;letter-spacing:0px;word-spacing:0px;fill:#000000;fill-opacity:1;stroke:none;stroke-width:1px;stroke-linecap:butt;stroke-linejoin:miter;stroke-opacity:1"
     xml:space="preserve"><tspan
       y="18.350761"
       x="37.453125"
       id="tspan3362">uses:</tspan></text>
</svg>