<?xml version="1.0" encoding="UTF-8" standalone="no"?>
<svg
   xmlns:dc="http://purl.org/dc/elements/1.1/"
   xmlns:cc="http://creativecommons.org/ns#"
   xmlns:rdf="http://www.w3.org/1999/02/22-rdf-syntax-ns#"
   xmlns:svg="http://www.w3.org/2000/svg"
   xmlns="http://www.w3.org/2000/svg"
   version="1.1"
   id="Layer_1"
   width="53.01"
   height="32"
   viewBox="0 0 53.01 32"
   overflow="visible"
   enable-background="new 0 0 659.055 110.036"
   xml:space="preserve"
   style="overflow:visible"><metadata
     id="metadata3355"><rdf:RDF><cc:Work
         rdf:about=""><dc:format>image/svg+xml</dc:format><dc:type
           rdf:resource="http://purl.org/dc/dcmitype/StillImage" /><dc:title></dc:title></cc:Work></rdf:RDF></metadata><defs
     id="defs3353" /><polygon
     style="clip-rule:evenodd;fill:#004c82;fill-rule:evenodd"
     id="polygon3339"
     points="77.85,11.83 82.26,12.65 86.1,13.48 90.23,14.31 94.08,15.13 97.93,15.68 101.2,16.51 104.5,17.06 107.3,17.88 109.8,18.43 112,18.71 113.9,18.98 115.3,19.26 116.1,19.53 116.6,19.53 120.2,20.36 123.5,20.91 126.3,21.73 128.5,22.28 130.7,23.11 132.3,23.66 134.5,24.76 135.3,25.31 136.7,26.68 136.7,26.96 137,27.24 137,27.51 148.8,27.51 149.9,27.78 151,27.78 151.9,28.06 152.7,28.06 153.5,28.34 155.7,29.43 156,29.99 157.9,33.01 158.5,36.59 157.9,40.99 156.5,45.12 154.9,49.24 153.2,52.55 151.9,54.74 151.3,55.57 150.8,55.85 149.4,56.39 147.5,57.22 144.7,58.32 141.7,59.42 137.8,61.07 133.7,62.72 129,64.37 123.8,66.57 118.3,68.5 112.8,70.7 100.7,75.66 94.36,78.13 88.03,80.33 81.7,83.08 75.1,85.56 68.78,87.75 62.72,90.51 56.4,92.71 50.62,94.9 39.61,99.31 34.66,101.2 29.98,102.9 25.86,104.5 22.29,105.9 19.26,107.3 16.79,108.1 14.86,108.9 13.76,109.2 13.48,109.5 155.7,109.5 178.8,0 23.38,0 23.38,0.555 23.38,0.555 24.21,0.555 25.59,0.824 27.23,1.1 31.64,2.203 37.69,3.299 40.99,4.129 44.57,4.955 48.42,5.504 52.27,6.604 56.4,7.152 60.52,8.254 73.73,10.73 "
     transform="matrix(0.3187,0,0,0.2922,-3.978,0)" /><polygon
     transform="scale(0.2964,0.2922)"
     style="clip-rule:evenodd;fill:#004c82;fill-rule:evenodd"
     id="polygon3341"
     points="118.3,40.16 119.4,40.44 122.1,40.44 123.8,40.16 125.4,40.16 129.3,39.62 131.2,39.62 133.4,39.34 135.3,39.07 137,38.79 138.9,38.51 146.4,38.51 147.2,38.79 147.7,39.07 148.3,39.89 148.3,40.99 148,42.09 147.7,43.47 147.2,45.12 146.4,47.05 145.8,48.97 145.5,50.07 146.1,50.62 146.6,50.34 147.7,49.24 148.3,48.42 149.1,47.05 149.9,45.39 150.8,43.47 151.6,41.82 152.1,40.16 152.4,38.79 152.4,37.14 151.9,35.76 151,34.94 149.9,34.11 148.6,33.56 146.9,33.29 145,33.01 133.4,33.01 133.1,33.29 132.9,33.29 132.3,33.56 131.8,34.67 131.2,34.94 130.7,35.49 129.8,36.04 129.8,36.04 129,36.31 123.5,37.41 122.1,37.41 121,37.69 119.9,37.69 118.3,37.97 117.5,38.24 116.9,38.51 116.6,39.07 116.6,39.62 117.2,40.16 " /><polygon
     transform="scale(0.2964,0.2922)"
     style="clip-rule:evenodd;fill:#004c82;fill-rule:evenodd"
     id="polygon3343"
     points="44.29,87.75 49.24,85.28 53.37,83.08 56.95,81.43 59.7,80.05 61.62,79.23 64.37,77.85 66.85,76.48 69.88,75.1 72.9,73.45 75.65,72.07 78.95,70.7 81.98,69.05 85.28,67.68 88.58,66.02 105.1,59.15 112.5,56.67 113.6,56.39 114.7,55.85 116.1,55.57 121,53.92 126.8,52.27 128.7,51.99 134.5,50.34 137.8,49.8 138.9,49.52 139.7,49.24 140.6,49.24 141.4,48.97 141.9,48.42 142.2,48.42 142.2,48.14 141.7,47.05 140.8,46.77 139.7,46.49 138.6,46.49 137,46.22 135.3,46.22 133.4,46.49 130.1,46.77 126.5,47.31 122.7,48.14 118.6,48.97 114.4,50.07 110,51.45 105.9,52.82 101.5,54.2 97.39,55.85 93.25,57.22 89.41,58.6 85.83,59.97 82.53,61.62 79.78,62.72 77.3,63.83 75.38,64.92 64.92,32.46 131.5,32.46 131.8,31.09 130.7,29.71 129,28.89 126.5,28.06 123.8,27.24 116.6,26.13 105.1,25.31 18.16,25.31 18.16,25.31 0,109.5 0.829,109.2 2.477,108.1 5.229,107 8.807,105.1 12.93,103.2 17.61,100.7 23.11,98.21 28.34,95.46 33.84,92.98 39.06,90.23 " /></svg>