<?xml version="1.0" encoding="UTF-8" standalone="no"?>
<svg
   xmlns:dc="http://purl.org/dc/elements/1.1/"
   xmlns:cc="http://creativecommons.org/ns#"
   xmlns:rdf="http://www.w3.org/1999/02/22-rdf-syntax-ns#"
   xmlns:svg="http://www.w3.org/2000/svg"
   xmlns="http://www.w3.org/2000/svg"
   id="svg2"
   version="1.1"
   viewBox="0 0 32 32"
   height="32"
   width="32">
  <metadata
     id="metadata15">
    <rdf:RDF>
      <cc:Work
         rdf:about="">
        <dc:format>image/svg+xml</dc:format>
        <dc:type
           rdf:resource="http://purl.org/dc/dcmitype/StillImage" />
        <dc:title>beaker</dc:title>
      </cc:Work>
    </rdf:RDF>
  </metadata>
  <!-- Generator: Sketch 40.3 (33839) - http://www.bohemiancoding.com/sketch -->
  <title
     id="title4">beaker</title>
  <desc
     id="desc6">Created with Sketch.</desc>
  <defs
     id="defs8" />
  <g
     style="fill:none;fill-rule:evenodd;stroke:none;stroke-width:1"
     transform="matrix(2,0,0,2,1.157,0)"
     id="Octicons">
    <g
       style="fill:#000000"
       id="beaker">
      <path
         id="Shape"
         d="M 14.38,14.59 11,7 11,3 12,3 12,2 3,2 3,3 4,3 4,7 0.6297,14.59 C 0.3297,15.25 0.8197,16 1.54,16 l 11.94,0 c 0.72,0 1.2,-0.75 0.91,-1.41 l 0,0 z M 3.75,10 5,7 5,3 l 5,0 0,4 1.25,3 -7.5,0 0,0 z M 8,8 9,8 9,9 8,9 8,8 8,8 Z M 7,7 6,7 6,6 7,6 7,7 7,7 Z M 7,4 8,4 8,5 7,5 7,4 7,4 Z M 7,1 6,1 6,0 7,0 7,1 7,1 Z" />
    </g>
  </g>
</svg>
