<?xml version="1.0" encoding="UTF-8" standalone="no"?>
<svg xmlns:rdf="http://www.w3.org/1999/02/22-rdf-syntax-ns#" xmlns="http://www.w3.org/2000/svg" height="700pt" width="700pt" version="1.0" preserveAspectRatio="xMidYMid meet" xmlns:cc="http://creativecommons.org/ns#" xmlns:dc="http://purl.org/dc/elements/1.1/" viewBox="0 0 700.000000 700.000000">
 <metadata>Created by potrace 1.13, written by Peter Selinger 2001-2015
  <rdf:RDF>
   <cc:Work rdf:about="">
    <dc:format>image/svg+xml</dc:format>
    <dc:type rdf:resource="http://purl.org/dc/dcmitype/StillImage"/>
    <dc:title/>
   </cc:Work>
  </rdf:RDF>
 </metadata>
 <g transform="translate(0 700) scale(0.1 -0.1)">
  <path d="m0 4560v-2440h996 997l-7 78c-4 42-9 92-12 110l-6 32h1551 1551v-43-43l-52-14c-29-7-75-19-101-27l-48-14 30-35c17-19 31-39 31-44 0-6 377-10 1035-10h1035v2445 2445h-3500-3500v-2440zm3719 1668c4-13 86-363 181-778s176-759 180-763 44 15 89 44c69 44 80 55 75 73-4 12-103 319-220 683-118 363-214 671-214 682 0 45 34 16 135-119 261-346 438-518 647-629 40-21 94-47 121-56 26-10 47-23 47-29s-86-112-191-234c-105-123-189-225-187-227 2-1 113 67 247 152s249 152 256 149c7-2 16-22 20-43 13-74 134-480 199-668 202-591 457-1135 723-1543 97-151 167-244 279-378 52-62 94-121 94-132 0-19-11-20-877-27-797-7-3202 1-3212 11-2 2 141 440 318 974 216 651 326 970 335 970 8 0 16-6 18-12 3-7 74-417 159-911 85-495 155-893 157-885 1 8-38 410-88 894l-92 879 37 32 36 31-100 697c-56 383-101 707-101 721 0 16 6 24 18 24 11-1 56-63 135-188 65-103 142-224 171-270l53-83 47 128c61 163 184 415 276 563 82 131 197 290 211 290 5 0 13-10 18-22zm-1175-596c3-5-8-51-25-103-79-251-119-542-126-904l-6-269 133 162c72 89 138 162 145 162 30 0 24-27-38-163-210-463-344-959-477-1775-28-169-53-317-55-329l-5-23h-646c-640 0-645 0-642 20 2 11 275 351 606 756 332 404 602 737 600 738-1 2-167-50-368-115s-375-119-387-119-25 5-28 10c-5 9 523 816 1137 1738 134 201 166 239 182 214z"/>
  <path d="m3771 3317c71-424 130-781 132-792s4 327 3 750l-1 770-95 17c-52 9-111 19-131 22l-35 6 127-773z"/>
  <path d="m0 1055v-1055h3500 3500v1050 1050l-1062-2c-585 0-1049-3-1032-5 45-6 56-55 32-134-22-75-118-159-181-159-23 0-24 3-30 107-4 58-7 128-7 155v50l-247-7-248-7-385-104c-212-58-423-111-469-119-67-12-204-15-696-15h-612l-21 23c-16 17-24 45-32 114-6 51-9 97-5 103 4 7-318 10-999 10h-1006v-1055z"/>
 </g>
 <g>
  <path d="m2.595 744.5v-129.8h122.3 122.3l2.234 10.2c1.229 5.608 2.877 12.28 3.662 14.83 1.084 3.52 20.6 4.635 81.1 4.635h79.67l51.14-13.49c33.17-8.753 63.84-14.29 87.29-15.76l36.15-2.264-0.004 17.73c-0.003 12.77 1.641 18.36 5.88 19.99 8.063 3.094 24.36-13.88 25.07-26.11l0.5645-9.747 127-0.003 127-0.003v129.8 129.8h-435.6-435.6v-129.8z" transform="scale(.8)" fill="#004a7f"/>
  <path d="m632 608.3c-19.81-1.562-23.34-7.438-6.488-10.81 7.613-1.523 11.12-4.418 11.12-9.176 0-6.71-6.833-6.952-196.3-6.952h-196.3l2.106 12.98 2.106 12.98h-122.8-122.8v-302.2-302.2h435.6 435.6v304 304l-112.2-0.6683c-61.69-0.3674-120.1-1.293-129.8-2.057zm145.5-32.83c0-1.201-10.78-16.55-23.96-34.11-47.1-62.76-84.23-138.8-119-243.6-14.09-42.47-25.09-70.03-27.69-69.39-2.373 0.578-13.36 6.835-24.41 13.9-11.05 7.069-21.06 12.85-22.24 12.85-1.182 0 6.359-9.82 16.76-21.82s18.9-23.36 18.9-25.24-6.48-6.276-14.4-9.771c-24.18-10.67-46.38-30.16-74.42-65.31-22.6-28.33-33.53-38.84-33.53-32.21 0 0.7526 12.46 40.38 27.7 88.06 25.27 79.09 27.16 87.09 21.54 91.32-12.59 9.471-9.443 17.71-34.38-89.91-24.06-103.9-22.58-98.25-26.03-98.25-7.319 0-48.6 72.09-63.57 111-3.278 8.523-4.674 7.176-24.01-23.17-20.17-31.65-27.5-38.61-27.13-25.73 0.1026 3.569 5.619 44.41 12.26 90.76 9.485 66.21 11.11 85.28 7.575 88.98-3.528 3.696-2.958 19.09 2.647 71.45 3.929 36.71 6.678 69.2 6.109 72.21-0.569 3.007-6.785-28.3-13.81-69.57-7.688-45.15-14.32-74.57-16.65-73.86-2.13 0.6508-20.09 49.48-39.91 108.5-19.82 59.03-36.07 103.1-36.12 98.05-0.1194-13.98 20.46-112.3 31.35-149.8 5.274-18.16 15.36-46.96 22.42-64 7.055-17.04 12.83-32.64 12.83-34.65 0-7.721-6.663-2.977-21.59 15.37-17.9 22-17.25 24.15-11.97-39.73 1.87-22.59 6.288-53.05 9.818-67.67 6.705-27.78 5.24-36.57-4.076-24.45-18.32 23.83-158 239.6-156.3 241.4 1.174 1.174 21.64-3.941 45.48-11.37 23.84-7.425 43.79-13.06 44.34-12.51 0.5421 0.5421-16.04 21.84-36.84 47.32-76.6 93.83-106.2 131.2-106.2 134.1 0 1.668 152.7 3.032 339.2 3.032 186.6 0 339.2-0.9826 339.2-2.183z" transform="scale(.8)" fill="#0094ff"/>
  <path d="m472.2 454.1c-7.837-46.54-13.53-85.34-12.64-86.23 0.8836-0.8836 6.744-0.5791 13.02 0.6766 11.37 2.274 11.43 2.401 13.8 32.47 1.313 16.6 1.865 54.38 1.226 83.94l-1.161 53.76-14.25-84.62z" transform="scale(.8)" fill="#0094ff"/>
 </g>
</svg>
